<?xml version="1.0" encoding="UTF-8"?>
<svg id="Layer_2" data-name="Layer 2" xmlns="http://www.w3.org/2000/svg" xmlns:xlink="http://www.w3.org/1999/xlink" viewBox="0 0 300 300">
  <defs>
    <style>
      .cls-1 {
        fill: #fff6e9;
      }

      .cls-1, .cls-2, .cls-3, .cls-4, .cls-5, .cls-6, .cls-7, .cls-8 {
        stroke-width: 0px;
      }

      .cls-2 {
        fill: #002f49;
      }

      .cls-3 {
        fill: none;
      }

      .cls-4 {
        fill: #d72729;
      }

      .cls-9 {
        clip-path: url(#clippath);
      }

      .cls-5 {
        fill: #fcbf4a;
      }

      .cls-6 {
        fill: #f77815;
      }

      .cls-7 {
        fill: #fff;
      }

      .cls-8 {
        fill: #f67f00;
      }
    </style>
    <clipPath id="clippath">
      <circle class="cls-3" cx="150" cy="150" r="150"/>
    </clipPath>
  </defs>
  <g id="Layer_4" data-name="Layer 4">
    <g>
      <circle class="cls-1" cx="150" cy="150" r="150"/>
      <g class="cls-9">
        <g>
          <path class="cls-6" d="M93.53,48.81s10.32-24.09,37.85-16.32c-13.76,9.43-15.48,18.04-18.92,30.29-8.6-10.54-18.92-13.98-18.92-13.98Z"/>
          <path class="cls-5" d="M119.84,70.74c25.3-6.44,18.42-37.41,49.39-46.01-17.2-10.32-37.85-3.44-39.57,5.16,5.16,1.72,5.16,3.44,5.16,3.44,0,0-22.37,13.76-14.98,37.41Z"/>
          <path class="cls-6" d="M129.66,72.9s13.76,13.76,32.69-8.6c18.92-22.37,25.81-20.64,25.81-20.64,0,0-27.53-10.32-39.57,3.44-6.88,18.92-18.92,25.81-18.92,25.81Z"/>
          <path class="cls-5" d="M148.59,79.78s32.69,10.32,51.61-15.48c18.92-25.81,24.09-24.09,24.09-24.09,0,0-32.69-1.72-46.45,17.2s-29.25,22.37-29.25,22.37Z"/>
          <path class="cls-4" d="M157.19,86.66s12.04,6.88,22.37,13.76c5.16,1.72,31.43,6.06,46.45-20.64,15.48-27.53,29.25-22.37,29.25-22.37,0,0-22.37-17.2-48.17,10.32-26.37,28.13-49.89,18.92-49.89,18.92Z"/>
          <path class="cls-5" d="M188.16,106.41s30.97-2.54,39.37-17c27.73-1.03,38.71-16.51,38.71-16.51,0,0,7.94,37.85-16.14,49.89-24.09,12.04-40.43,6.03-40.43,6.03l-21.51-22.41Z"/>
          <path class="cls-4" d="M212.24,134.83c12.04,17.2,18.92,30.97,18.92,30.97,0,0,18.92,5.16,41.29-6.88,22.37-12.04,13.76-48.17,13.76-48.17,0,0-15.48,24.09-34.41,18.92-17.2,10.32-34.41,6.88-39.57,5.16Z"/>
          <path class="cls-8" d="M232.89,170.96c10.32,15.48,3.44,32.69,37.85,32.69s36.13-53.33,36.13-53.33c0,0,.86,20.43-34.41,15.48-15.48,10.32-34.41,6.88-39.57,5.16Z"/>
          <path class="cls-8" d="M244.93,201.93c0,10.32,1.72,36.13,32.69,36.13,34.41,0,37.85-41.29,37.85-41.29,0,0-12.04,17.2-34.41,10.32-20.64,5.16-30.97,0-36.13-5.16Z"/>
          <path class="cls-4" d="M253.53,234.62c12.04,8.6,23.59,6.88,23.59,6.88,0,0,2.22,8.6,15.98,5.16-20.64,20.64-39.57-12.04-39.57-12.04Z"/>
          <path class="cls-2" d="M159.77,409.24c-50.75-28.39-66.24-81.72-54.19-116.13,19.73-56.37,24.09-80.86,16.34-107.53,0,0,19.78-7.74,24.09-32.69,2.58-24.95-12.9-36.45-12.9-36.45-2.74-7.69-.7-18.65-3.44-26.34-2.13-5.97-9.05-8.66-11.18-14.62,23.23,4.3,62.94,23.27,90.32,61.07,36.13,49.89,24.09,84.3,55.05,116.99,0,0-16.09,56.71-67.1,82.58-59.35,30.11-36.99,73.12-36.99,73.12Z"/>
          <path class="cls-4" d="M131.38,346.44c6.88-15.48,110.11-55.05,120.76-108.4-3.77-6.86-5.49-10.31-7.92-17.24-35.42,60.27-112.84,79.19-112.84,79.19l-23.59-13.28s-7.38,16.72-6.09,35.57c3.87,3.52,17.64,8.68,29.68,24.16Z"/>
          <path class="cls-5" d="M131.38,346.44c-6.88-18.92-17.2-18.92-17.2-30.97s17.2-15.48,17.2-15.48c0,0,17.2,3.44,17.2,13.76,0,12.04-10.32,13.76-17.2,32.69Z"/>
          <path class="cls-2" d="M81.49,98.71c-13.76,17.2-27.53,20.64-27.53,20.64-5.16,25.81-29.25,68.82-32.69,72.26s0,10.67,0,10.67c0,0,3.44,13.42,12.04,20.3,8.6,6.88,13.63,0,13.63,0l15.62-22.37s1.72-1.72,3.44,0c1.72,1.72,0,3.44,0,3.44l-13.76,20.64s-1.72,1.72,0,3.44c1.72,1.72,15.48-5.16,17.2-8.6,1.72-3.44,1.72-10.32,3.44-13.76,25.81-25.81,37.85-17.2,48.17-24.09,15.48-10.32,18.92-20.64,20.64-34.41,1.72-13.76-6.88-26.46-8.6-30.43-1.72-3.97-1.72-29.78-1.72-29.78,0,0-12.04,20.64-25.81,20.64-20.64,0-18.92-8.6-24.09-8.6Z"/>
          <path class="cls-2" d="M78.05,45.37s6.88,46.45,25.81,48.17c18.92,1.72,27.53-3.44,27.53-3.44,0,0-8.6-8.6-12.04-13.76-13.76-15.48-41.29-30.97-41.29-30.97Z"/>
          <path class="cls-4" d="M105.58,84.94s-1.72-10.32-6.88-17.2c-5.16-6.88-13.76-11.2-13.76-11.2,0,0,2.73,10.34,6.88,16.36,4.16,6.02,13.76,12.04,13.76,12.04Z"/>
          <path class="cls-2" d="M64.29,72.9c-6.88-1.72-5.16-25.81-5.16-25.81,0,0,13.76,10.32,17.2,17.2-3.44,3.44-5.16,3.44-12.04,8.6Z"/>
          <path class="cls-8" d="M80.63,68.56c-14.62-.82-35.26,42.19-40.43,14.66-10.32,22.37,13.76,17.2,13.76,17.2,0,0-10.32,10.32-25.68,7.41,10.2,16.68,42.89,1.2,51.49-12.27-1.72-8.9-3.44-17.5.86-27Z"/>
          <path class="cls-4" d="M81.49,74.62c13.76,27.53,18.92,22.37,41.29,20.64-12.04,10.32-22.37,10.32-30.97,6.88-6.88-3.44-13.76-18.92-10.32-27.53Z"/>
          <path class="cls-7" d="M45.6,195.3c-.24,3.19-.68,9.87-7.34,11.69-4.94,1.82-8.38.1-9.98-5.02-.12-6.92,4.49-14.74,9.06-15.13s8.5,5.27,8.26,8.46Z"/>
          <path class="cls-2" d="M32.79,193.33c.52,1.72,4.64,0,5.16,1.72.52,1.72-5.16,8.6-2.92,8.6s9.28-5.16,6.36-10.32-9.13-1.72-8.6,0Z"/>
          <path class="cls-7" d="M90.09,130.53c0,7.15-7.01,11.43-11.18,11.18-.71-.04-2.7-.29-4.86-1.41-.54-.28-6.32,1.41-6.32,1.41,0,0,1.95-4.82,1.2-6.14,0,0-1.31-2.2-1.2-5.04.19-4.82,4.3-11.18,11.18-11.18,2.61,0,4.97,1.16,4.97,1.16,2.77.56,9.65-4.6,9.65-4.6,0,0-3.44,6.88-4.42,10.28.75,1.73.98,3.36.98,4.35Z"/>
          <circle class="cls-4" cx="78.91" cy="130.53" r="7.74"/>
        </g>
      </g>
    </g>
  </g>
</svg>