<?xml version="1.0" encoding="UTF-8"?>
<svg xmlns="http://www.w3.org/2000/svg" viewBox="0 0 1540 1080">
  <defs>
    <style>
      .cls-1 {
        fill: #f41037;
      }

      .cls-1, .cls-2, .cls-3, .cls-4 {
        stroke-width: 0px;
      }

      .cls-1, .cls-4 {
        fill-rule: evenodd;
      }

      .cls-5 {
        fill: red;
        stroke: #c7ba20;
        stroke-width: 20px;
      }

      .cls-2 {
        fill: #c7ba20;
      }

      .cls-3 {
        fill: #139337;
      }

      .cls-4 {
        fill: #f1f700;
      }
    </style>
  </defs>
  <g id="Layer_1" data-name="Layer 1">
    <rect class="cls-2" width="1540" height="540"/>
  </g>
  <g id="Layer_3" data-name="Layer 3">
    <rect class="cls-3" y="540" width="1540" height="540"/>
  </g>
  <g id="Layer_2" data-name="Layer 2">
    <g>
      <path class="cls-5" d="M485.75,214.55v188.83c0,100.52,29.22,194.13,80.12,272.02,68.89,98.79,166.43,171.57,203.13,190.04,36.69-18.48,134.24-91.26,203.13-190.04,50.91-77.89,80.12-171.49,80.12-272.02v-188.83H485.75Z"/>
      <g id="layer1">
        <g id="g838">
          <g id="g831">
            <path id="path0" class="cls-4" d="M879.2,287.42c-.1-.07-.12-.04-.03.08.09.12-1.37.95-3.25,1.86-4.32,2.09-5.57,2.61-5.58,2.32,0-.13-.11-.08-.25.11-.51.71-2.08,1.52-2.08,1.08,0-.3-.08-.31-.25-.05-.13.21-1.74,1.07-3.56,1.92-1.82.85-4.29,2.1-5.5,2.78-1.2.68-2.33,1.19-2.52,1.13-.18-.06-.24,0-.12.11-2.85,2.29-4.89,3.87-5.84,6.9-1.14,1.16-2.05,4.77-2.37,7.76-.12,1.1-.37,2.09-.56,2.21-.23.14-.22.29.03.44.34.21.26,1.26-.2,2.52-.1.27-.15,1.06-.11,1.75.04.71-.08,1.25-.29,1.25s-.36.16-.36.35.14.27.3.17c.29-.18.18.76-.21,1.81-.1.27-.16.82-.12,1.22.04.39-.08.81-.27.93-.19.11-.25.43-.15.7.45,1.18-2.71,6.04-3.76,6.48-1.2.51-2.22-1.68-2.17-2.77.1-1.41-.36-2.6-.84-3.61-.75-1.57-1.56-2.63-2.8-3.66-.96-.8-2.07-1.75-2.48-2.12-.41-.37-.87-.7-1.03-.73-.16-.04-1.83-.6-3.7-1.26-3.76-1.32-4.79-1.32-5.99-.04-.85.91-1.12,4.37-.4,5.09.34.34-.03,3.15-.62,4.76-.1.27-.15.64-.11.8.26,1.13-2.6,7.86-3.34,7.86-.18,0-.23.15-.12.33s.04.33-.17.33-.28.15-.17.33c.11.18.07.33-.09.33s-.3.2-.3.44-.47,1.13-1.05,1.98c-.58.84-1.06,1.69-1.06,1.89s-.22.36-.5.36-.46.12-.42.26c.12.38-2.16,4.06-2.42,3.9-.12-.07-.23.05-.23.27-.03.73-3.13,6.9-3.47,6.9-.18,0-.25.12-.16.28.28.45-.54,2.71-.9,2.49-.18-.11-.23-.04-.1.17-.46,1.3-.96,3.6-1.4,2.21-.41-.09-2.31-3.06-2.72-3.81-.21-.39-1.31-1.3-2.44-2.02-1.13-.72-2.21-1.42-2.39-1.57-.18-.15-.6-.21-.92-.15-.32.06-.58-.01-.58-.17s-.61-.22-1.36-.15c-.75.07-1.53-.04-1.73-.24-.46-.46-1.81-.49-1.96-.04-.06.18-.49.36-.96.4-.63.05-.88.29-.97.92-.18,1.33.07,6.51.32,6.51.18,0,.24,7.03.07,7.31-.11.18-.24.93-.28,1.67-.12,2.22-.43,4.19-1.12,7.17-.36,1.56-.74,3.4-.85,4.09s-.34,1.17-.51,1.06c-.17-.11-.32-.04-.32.16s.13.35.29.35.21.37.13.83c-.09.46-.28.83-.43.83s-.19.52-.09,1.15c.1.63.07,1.42-.07,1.75-.14.33-.24.69-.22.81.02.11.06,1.84.08,3.83.03,1.99.27,4.52.55,5.62,1,3.95.8,5.51-.6,4.64-.17-.1-.3-.01-.3.2,0,.24-.37.34-1,.24-.55-.08-1-.04-1,.08s-.86.32-1.92.43c-1.05.11-2.21.25-2.58.3-.36.05-1.22.64-1.9,1.3-.68.66-1.32,1.13-1.42,1.03-.1-.1-.18.15-.18.55,0,.73.21,1.08,1.5,2.48.37.4.63.85.57,1-.05.15.04.19.19.1.16-.1,1.09.64,2.08,1.64.99,1,1.71,1.82,1.61,1.82s.5.74,1.34,1.65c2.19,2.35,6.47,8,6.47,8.53,0,.25.11.38.24.3.28-.17.79.85.67,1.34-.04.18.03.23.16.09.34-.34,4.15,4.59,4.15,5.38,0,.36-.43,1.15-.96,1.76-1.57,1.79-2.32,3.42-2.56,5.59-.15,1.32-.33,1.89-.51,1.61-.18-.29-.28-.04-.28.72,0,.87.08,1.04.32.67.27-.41.32-.39.33.17,0,.37.3,1.11.65,1.64.35.54.56,1.12.45,1.3-.11.18-.04.23.15.11.87-.54,6.9,6.66,6.85,8.17-.07,2.11-1.56,3.38-3.59,3.08-.8-.12-1.64-.1-1.88.04-.42.26-7.56.21-8-.06-.13-.08-.28.01-.34.2-.06.19-.59.38-1.17.42-.58.04-1.04.15-1.02.24.02.09-.78.99-1.78,2-1.24,1.25-1.85,2.15-1.92,2.83-.06.55-.25,1.14-.42,1.32-.42.42-.4,1.85.02,1.85.18,0,.34.41.34.92,0,.5.38,1.82.83,2.91,1.17,2.85,1.11,3.76-.26,3.96-1.14.17-5.33.6-6.33.65-.32.01-.58.13-.58.27s-.31.34-.68.45c-.37.12-1.26.79-1.98,1.49-.71.7-1.37,1.2-1.45,1.12s-.14.04-.12.28c.02.24-.24,1.34-.59,2.44-1.05,3.37-.94,8.88.23,10.94.5.89.83,1.76.73,1.92-.1.17-.06.27.09.23.15-.04.95.61,1.77,1.45,1.17,1.19,1.83,1.58,3,1.77,1.99.33,2.66.72,2.66,1.53,0,.45-.14.59-.42.42-.24-.14-.2.01.08.37.38.47.4.65.08.76-.23.08-.42.29-.42.48,0,.48-5.27,5.77-5.52,5.53-.11-.11-.47.07-.8.4-2.66,2.66-15.22,3.05-17.5.54-.18-.2-.52-.38-.75-.4-.95-.08-1.08-.16-1.08-.63-3.48-1.98-.75-4.56.44-7.23,2.28-3.62,2.2-6.5-2.88-4.1-.66.31-1.34.47-1.52.36-.18-.11-.43-.04-.55.16-.28.46-3.79.1-5.34-.55-3.02-1.4-4.4-5.52-6.82-7.77-1.86-1.82-3.99-2.47-1.6-5.31,3.08-3.09,6.39-4.58,9.58-6.84,3.12-2.98,3.77-3.19,5.46-5.87.86-2.05,1.39-1.72-2.28-2.18-1.09-.13-2.2-.29-2.48-.34-.27-.05-.85-.11-1.28-.12-.74-.02-4.05-2.99-4.05-3.63-4.35-3.12-7.89-16.08-5.55-18.26,3.44-2.44,11.6-6.43,10.92-9.68.48-1.18,1.76-2.67.92-3.55-.23-.53.25-1.33-.15-1.64-.09-.23-.53-.44-.99-.46-.45-.03-.74.09-.64.25.1.16-.16.31-.58.32-1.2.03-3.54,1.09-4.59,2.08-.89.84-2.48,1.22-2.73.65-.06-.14-1.28-.21-1.95-.79-.7-1.47-.16-1.65-1.69-2.04-.25-.25-.98-.81-1.63-1.26-.64-.45-2.96-1.68-4.53-3.24-1.57-1.56-2.94-3.79-3.69-4.45-2.29-2.05-5.42-3.83-3.17-5.46.13-.09,2.22-3.27,2.89-4.41,1.62-2.8,5.36-6.29,2.03-8.79.16-.27.09-.29-.23-.08-.5.32-1.11.38-4.94.45-3.61.07-9.01,1.31-6.49-.81,1.89-2.3,4.77-5.11,5.02-5.88.49-1.08,1.41-3.03,1.41-3.03,0,0,.83-2.74,1.49-4.71.3-.48.69-4.39.85-7.46.42-7.93,1.1-11.5,3.29-13.47.99-.9,1.67-4.59.42-4.59-.35,0-.69-.17-.76-.39-.09-.27-.31-.29-.73-.05-.34.19-1.16.23-1.9.1-.75-.14-1.3-.11-1.3.07,0,.17-.34.26-.75.2-.41-.06-.93.12-1.16.39-.34.42-.46.43-.71.05-.16-.25-.35-.32-.42-.16-.12.29-4.87,2.1-5.36,2.09-1.35.92-2.52,2-3.91,2.97-.78.53-1.34,1.56-1.34,1.68,0,.11-.86.66-1.46,1.3-1.41,1.57-1.91,2.2-3.35,3.74l-1,1.83c1.28-1.66-.95.72-1.03.79-1.09,1.17-2.12,2.4-2.28,2.75-.17.34-.41.62-.55.62s-.18.28-.09.62c.16.61-1.28,1.49-2.42,1.49-.25,0-.46.11-.46.25,0,.28-3.03,1.51-3.41,1.38-.14-.04-.25.07-.25.25s-2.76,1.35-3.29,1.35c-2.28-1.3-.93-4.34-2.52-6.02-.82-.87-.89-2.07-.88-2.22.01-.15-.09-.27-.23-.27-.3,0-2.54-1.55-2.68-1.85-.19-.43-2.92.07-3.34.62-.24.31-.55.54-.69.5-.14-.03-.18.4-.1.96.1.7.03.95-.22.8-.23-.14-1.18.31-1.07.6.5,1.31-1.55,5.51-2.97,5.62-.35.03-1.31.11-1.24.18.38.38-1.07,2-2.19,2.17-.75.11-1.18.06-1.06-.13.11-.17.05-.31-.13-.31s-.37.14-.44.32c-.06.18-.88-.27-1.56-.18-1.62.2-6.08,2.47-6.74,3.06-.29.26-.62.47-.73.47s-.87.17-1.5.81c-.63.65-2.11,2.74-2.32,2.68-.55-.14-2.78-3.44-2.78-3.82s.21-.99-2.52-1.23c-1.36-.12-2.09-.76-2.61-.47-.43.24-1.52.41-1.61.39-.1-.03-.3,1.68-.17,3,.13,1.35.75,2.63.57,2.85-.2.24-.83,2.54-.59,2.62.75.25,1.1,1.85.26,2.63l-.76.7.65-.83c.56-.71,2.24-1.34,1.73-.94-.33.26-3.87,1.97-4.58,3.45-3.25,6.81-3.61,10.18-1.87,13.14l3.84,2.6-2.98.75c-.63.47-.9.52-1.28.21-.39-.31-.43-.3-.22.05.22.37-.37.43-3.27.33-1.95-.06-3.54,0-3.54.13,0,.14-1.27.25-2.83.25s-2.83-.14-2.83-.32-.44-.24-1-.12c-.72.14-1,.07-1-.26,0-.38-.06-.38-.28-.02-.23.37-.36.37-.74,0-.57-.54-.86-.57-7.13-.89-3.87-.2-5.3-.15-6.33.2-.73.25-1.59.38-1.92.3-.32-.08-.58-.03-.58.13,0,.32-1.34.83-1.83.7-.18-.05-.22.01-.09.15.13.13-.13.68-.58,1.22-2.32,2.76-.29,2.59,5.63,2.75,2.58.07,4.12,1.71,4.02,1.88-.1.16.03.3.3.3s.55.27.64.61c.18.69.18-.07,4.23.06,3.05.1,6.29,1.94,5.83,2.7-.11.17-.07.29.08.26.71-.12,1.12.07.91.42-.13.21-.09.3.08.19.43-.27,4.87,2.56,4.54,2.89-.14.14-.11.22.07.16.18-.05.86.08,1.5.29.64.21,1.59.46,2.11.55,3.58.34,6.98,1.11,9.84,1.97,1.55.09,2.97.49,4.7.65,3.36.4,5.61.51,9.52.94.84-.16,1.96.81,3.57,1.57,1.17.55,2.68,1.11,3.35,1.24.67.13,1.34.06,1.43.2,1.6.53,3.48.41,5,.51,2.71.39,5.41-1.34,7.29-2.03,1.49-1.26,2.67,1.46,2.13,3.11-.55,1.69-1.27,3.66-2.02,3.21-.07-.04-.8.57-.92.75-.11.17-.69.56-1.29.87-.6.31-1.08.74-1.08.97s-.29.63-.65.89c-.36.26-1.65,2.33-1.55,2.49.27.43-.82,4.28-1.44,4.75-.29.22-.98.5-1.53.62-.55.12-1.63.56-2.4.98-.95.52-1.45.64-1.56.38-.11-.27-.16-.26-.18.03-.04.59-1.34.52-1.57-.08-.11-.27-.35-.44-.56-.3-.69.32-1.5.21-1.85.02-.26.35-4.92,2.46-5.95,2.69-.41.09-.75.29-.75.44s-.6.61-1.33,1.02c-.73.41-1.33.85-1.33.98s-.26.32-.58.43c-2.15.74-5.19,2.4-5.27,3.8-1.01.03-1.03,2.63-2.47,3.44-.46.26-.91.55-1,.66-.8.91-7.85,4.85-8.41,4.71-.14-.04-.21.07-.17.23.05.16-1.34,1.93-2.76,4.06-1.42,2.13-2.32,4.06-2.32,4.17s-.9.6-1.43,1.28c-.88,1.11-1.66,2.54-2.33,4.35-.94,2.55-.65,3.16-.86,3.16-.13,0-.24.26-.26.58-.05.91-1.8,5.57-2.14,5.69-.17.06-.2.28-.08.48.32.53.12,3.71-.25,3.85-.37.13-.42,1.39-.06,1.39.29,0,.23,4.48-.06,4.96-.11.17-.05.36.14.43.38.13,2.07,5.96,2.13,7.36.02.5.14.92.25.92s.32.49.46,1.08c.38,1.66.38,1.65.94,3.25.29.82,1.36,3.14,2.38,5.15,1.02,2.01,1.78,3.85,1.69,4.1-.09.25-.04.36.12.27.3-.18,1.93,3.42,1.77,3.92-.05.15.07.18.26.06.19-.12.44.05.57.37.12.32.94,1.62,1.82,2.9.88,1.28,1.5,2.49,1.39,2.69-.12.2-.1.27.05.14.22-.19,1.31.9,2.25,2.23.13.18.73.93,1.35,1.67,1.5,1.8,2.42,3.26,2.3,3.66-.06.18-.01.24.1.13.23-.23,3.85,3.27,3.85,3.73,0,.17.12.27.27.22.28-.09,2.61,1.9,6.81,5.83,1.32,1.23,2.53,2.25,2.68,2.25.15,0,.17.16.06.34-.12.19-.09.32.06.29.71-.12,1.12.07.91.42-.13.21-.09.3.08.19.36-.22,4.9,2.53,4.62,2.8-.1.1.03.18.29.18.69,0,5.87,3.82,5.66,4.16-.1.16-.06.26.09.22.15-.04,1.02.31,1.94.78.92.47,2.23,1.04,2.91,1.26.69.22,1.25.55,1.25.73s.12.25.27.16c.38-.24,3.12.61,2.9.89-.1.13-.09.17.01.1.3-.21,4.47,1.32,5.14,1.9.33.28.67.45.74.37.13-.13,1.65.46,4.76,1.86.74.33,2.05.71,2.91.84,1.39.31,1.53.7,2.52.29.13.08.9.24,1.72.37,1.64.55,4.39.31,4.82,1.18-.11.17.04.22.32.11.42-.16.52.09.52,1.34s.19,1.76,1.08,2.75c1.86,2.07,3.73,3.77,4.16,3.77.23,0,.42.11.43.25,0,.14.6.61,1.32,1.06.72.44,1.22.95,1.1,1.13-.11.18-.05.23.14.12.46-.29,4.21,3.17,5.5,5.07.57.84,1.13,1.6,1.24,1.7.96.81,1.39,2.17,1.16,3.62-.14.85-.29,2.74-.34,4.21-.1,3.27.03,2.79-1.14,4.16-.54.64-1.15,1.35-1.34,1.58-.2.24-.21.42-.04.42.29,0,.22,1.78-.15,3.57-.34,1.68-8.8,1.37-8.8-.33,0-.16-.14-.2-.32-.09-2.8-.07-4.68-.9-7.43-1.65-2.66.12-3.67-.46-5.53-1.91-1.76-1.33-3.69-2.76-5.33-3.52-1.62-.77-1.92-.81-3.33-.47-.85.21-2.78.41-4.29.43-1.51.03-2.67.16-2.58.3.17.28-.62.65-1.39.65-.66.51-1.49.62-2.43-.67-1.43,0-2.35.14-2.35.35,0,.19-.14.27-.31.16-.17-.11-.42-.01-.55.2-.16.26-.1.3.19.13.29-.18.37-.11.26.2-.09.25-.35.42-.57.37-.22-.05-.31.05-.2.23.11.18.28.97.37,1.76.3,2.47,2.36,1.6,3.13,1.84.82.25-.67,2.02-.66,2.7,0,.24-.16.33-.38.2-.26-.16-.29-.09-.1.22.15.25.25.95.21,1.55-.04.6.07,1.37.25,1.71.23.42.2.75-.07,1.05-.31.34-.31.38.02.2.25-.14.51,0,.65.37.43,1.13.98,1.16,2.06.95,1.49-.3,2.37.87,2.37,2.7,0,1.22.21,1.66,1.37,2.92,3.38.27,1.61.86,4.29,1.19.27.04.87.42,1.33.85.55.52,1.59.92,3.08,1.19,1.24.23,2.25.57,2.25.77,0,.2.13.16.28-.08.23-.36.38-.34.83.11.3.3.55.39.55.21,0-.21.43-.16,1.11.12,1.37.57,5.56,1.1,10.38,1.31,4.03.18,5.42.43,8.16,1.5,1.01.39,2.09.8,2.41.9.32.1.58.32.58.47s.2.21.43.12c.88-.34,4.15,1.51,3.76,2.13-.11.18-.05.38.14.44.19.06.07.87.17,1.42.27,1.43.84,2.29.89,2.74.03.21.27.3.54.19.34-.13.42-.06.24.22-.19.31.25-.18,1.32-.26,1.29-.1,1.29.54,1.51,1.33.13.48.58,1.33.99,1.89.52.7.7,1.32.6,2.02-.08.56-.04.94.09.86.13-.08.32.08.43.35.34.89,2.42.69,3.29.26.75-.38,1.43.46,2.11.53.56.06,2.42,2.82,2.55,3.78.06.47.29,1.07.52,1.33.22.27.29.61.15.76-.14.15-.04.15.21.01.27-.16.57-.08.74.2.16.25.29.3.3.1,0-.33,4.63.56,6,1.16.97.42,6.15.13,7.83-.45.92-.31,1.84-.99,2.18-1.06.86-.18,1.71-.66,2.15-1.06,1.51-.8,4.1-2.37,4.91-1.23.15-.21.46-.09.83.31.58.63.57.63-.07.17-.62-.45-.63-.44-.2.11.25.32.54.52.62.43.09-.09.64.21,1.23.66.59.45,1.38.82,1.76.82s.77.19.86.42c.12.3.18.3.19.02,2.18-.22,3.95.66,5.86-.19.48-.09.84,0,.84.21,0,.26.08.26.25-.01.13-.21,1.1-.54,2.14-.74,1.87-.35,3.13-1.95,4.01-3.01,1.43-1.57,3.69-1.39,5.06-.51.29.29.52.38.52.21s.55-.12,1.25.13c.69.24,1.51.45,1.83.46.32,0,.58.13.58.26s.49.24,1.08.23c.6-.01,1.61.15,2.25.35.89.28,3.5.16,3.5-.08,0-.04,1.92.05,5.22-.21,1.04-.08,2-.55,2.2-.67,2.77-1.35,5.15-2.78,7.5-1.65,2.03.41,12.17.57,16.15.25,2.87-.23,3.46-.82,4.23-2.19.2-.36,1.04-1.45,1.24-1.66,7.29.16,4.59-6.22.17-7.27-.63-.45-.43.31-1.36-.15-1.72.82-2.01,1.64-3.31.31-.14-.52-1.66-1.01-1.14-1.05,0,.38-4.41.02-4.41-.36,0-.14-2.47-.21-5.5-.16-4.22.08-5.5.29-5.5-.03-1.51.17-7.05,1.81-6.99.39,3.64-3.03,7.64-5.68,12.37-6.84,1.8-1.91,1.7-2.17,1.8-3.52-.79-2.55-3.98-1.32-4.99-3.16.91-.91,4.81-2.42,5.29-3.7,1.39-3.61,4.53-8.37,7.29-11.4l1.06-1.08,3.05.94c3.43,1.68,7.35,4.52,10.73,7.77,1.17,1.12,2.34,2.04,2.6,2.04,3.76-.22,7.09-.11,10.03.61.07.22.27.31.44.2.17-.1.74.12,1.27.5.53.38,1.2.69,1.5.69s.53.11.53.25.34.27.75.29c.41.03,2.02.67,3.58,1.44,1.56.77,3.62,1.7,4.58,2.06.96.37,1.75.81,1.75.99s.16.23.36.11c.36-.22,3.61,1.35,4.01,1.94.11.17.34.28.5.25.54-.1,4.76,2.1,4.59,2.39-.1.16-.05.25.1.21.49-.13,1.77.42,1.77.77,0,.18.13.25.29.15.52-.32,15.88,9.17,15.48,9.57-.31.31-.09-.24,1.13-.66.41-3.03,1.16-4.08-.6-6.21-1.91-3.42-6.04-8.66-10.69-12.93-3.06-2.81-5.65-2.9-4.52-3.53,2.65-4.15,1.1-5.76-.45-8.66-.52-.99-1.72-2.56-2.3-3.76-.89-.99-1.79-1.61-1.68-1.78-1.78-1.75-3.96-3.35-5.74-4.61-2.47-1.73-3.01-2.33-5.23-3.51-1.19-.63-3.71-1.85-3.88-2.01.11-1.46.22-.48.1-1.66.01-1.12.19-1.75-.2-2.56-.28-.69-.7-1.3-1.27-2.52-3.45-3.48-6.27-4.51,2.94-4.01,4.38-.34,5.87-.5,7.64-.77,1.16-.21,2.22-.57,2.62-.63.74-.32,3.21-.97,6.25-2.42.37-.34,2.35-1.13,3.35-1.79,3.94-2.15,8.2-4.41,12.52-6.15,1.22-.82,3.05-1.26,3.72-1.64,1.98-.77,3.11-.86,4.93-.89,4.74-.32,4.53-2.43,2.26-6.05-1.99-2.07-2.67-2.68-2.67-3.91.33-.77,1.36-1.74,1.49-1.83.64-.46,3.74-2.36,6.36-4.98,1.36-1.45,2.55-2.65,3.66-4.12,3.24-3.76,4.53-5.53,7.17-8.16,2.89-3.25,6.44-5.45,9.09-7.5,1.19-1.57,4.7-2.76,6.44-2.39,1.21-1.62,1.67-1.54,1.36-3.32-.09-.96-3.12-3.76-5.59-4.92-1.38-.65-2.73-1.29-3.01-1.43-1.14-.57-2.61-2.21.14-4.62,1.28-1.58,2.04-2.81,2.21-4.44.98-1.84,1.03-10.84.05-16.04-.16-2.2-1.12-4.26-1.73-6.3-.35-.37-.96-1.37-1.35-2.21-.4-.84-1.53-3.03-2.52-4.85-1.16-1.64-1.42-3.76-2.32-5.34-.22-.7.25-.06-.28-1.17-.56-1.39-.33-3.24-.09-4.84.65-1.26.78-4.09.08-4.6-.78-1.77-2.41-.34-3.67-.57-.18-.04-.78.11-1.33.34-.55.23-1.34.44-1.75.47-.41.03-.75.15-.75.26,0,.22-1.57.7-1.77.54-.17-.14-3.55,3.81-3.55,4.15,0,.17-.14.22-.3.11-.17-.1-.23.09-.14.42.09.33-.08.8-.36,1.04-.29.24-.52.57-.52.73,0,.64-1.79,2.12-2.4,1.92-.34-.11-1.23-1.64-2.48-2.85-1.25-1.2-2.8-2.58-3.44-3.07-5.3-3.99-10.92-8.08.36-6.08,3.81.26,7.85-1.37,10.38-3.68,1.82-2.26,1.69-1.38,2.74-3.28,2.86-4.85,4.31-15.64,3.15-22.27-.33-1.4-.59-2.32-.72-3.68-.02-1.08-.29-2.52-.63-3.34-.04-2.14-.94-4.19-1.54-6.09,0-1.02-.03-2.14.1-2.14.44-1.85.92-3.37.69-5.36l-1.25-.34c-1.57-.74-3.36.42-5.57.9-1.89.28-3.69,1.2-5.52,1.5-.83.32-1.39,1.15-2.58,1.18-1.37.01-2.42,1.64-2.28-.87.04-.69.03-3.88-.1-4.2-.08-1.19-.19-2.28-.63-3.29-.27-.84-1.25-2.67-1.76-3.01-.19-.12-.72-.57-1.19-1-.47-.43-1.24-1.07-1.72-1.42-.48-.36-.79-.79-.68-.97.11-.18.03-.22-.18-.09-.21.13-.72.01-1.13-.26-.42-.27-1.58-.73-2.59-1.03-6.05-1.79-9.4-1.27-8.69-2.35,1.46-1.2,2.79-1.82,4.88-3.5,2.22-2.17,5.12-3.82,6.82-5.37,2.3-2.07,3.06-2.03,4.31-3.03,1.4-2.28,2.4-.53,2.46-1.91.19-1.39-1.28-3.03-2.83-3.52-2-.63-5.09-.54-3.43-2.27,1.04-1.08,5-5.59,5-5.86,1.85-4.4,3.59-8.51,5.52-13.32,1.59-8.47,9.09-15.41,8.81-15.85-.59-.63-.99-1.23-.88-1.34.11-.11.05-.17-.13-.13-.66.13-1.2-.02-1.03-.29.09-.15,0-.28-.23-.28-.22,0-1.86-.48-3.65-1.05-1.83-.41-4.23-1.49-5.74-1.38-1.77.71-4.31-.64-5.73.18-.27.27-.75.48-1.08.48-2.84.41-4.81,2.18-7.27,2.6-.4-.32-.47-.33-.29-.02.17.28-3.37,2.37-3.81,2.37-.93,0,1.87-2.42,1.71-8.78.2-3.07-.11-6.28-.45-9.16-.53-1.8-1.7-3.88-2.54-5.45-.88-1.68-1.98-3.75-2.45-4.6-1.72-3.11-3.4-5.42-1.45-8.05,3.44-5.18,7.41-8.8,8.43-13.95.23-1.09.18-7.74-.05-7.96M796.33,454.72c-.32.08-.85.08-1.17,0-.32-.08-.06-.15.58-.15s.9.07.58.15"/>
            <path id="path2" class="cls-1" d="M880.59,285.54c-.63-.02-1.41.22-2.36.72-.77.4-1.71.93-2.09,1.17-.39.24-2.43,1.19-4.55,2.1-3.33,1.44-7.16,3.22-13.48,6.26-1.93.93-7.11,5.81-8.27,7.79-2.22,3.79-2.66,5.63-3.67,15.29-.24,2.26-.56,4.11-.71,4.11s-.19.25-.07.55c.12.3.04.89-.16,1.31-.2.42-.62,1.56-.93,2.54-.31.97-1.13,2.69-1.83,3.8-1.46,2.33-1.59,2.25-2.33-1.25-.26-1.22-.73-2.73-1.05-3.34-.32-.62-.58-1.3-.58-1.53,0-.46-3.06-3.55-4.94-4.98-1.77-1.35-7.18-3.4-8.95-3.4-2.38,0-2.77.81-3.02,6.2-.26,5.68-1.65,10.77-3.58,13.06-.24.29-1.03,1.63-1.75,2.98s-2.22,3.79-3.34,5.43c-2.99,4.39-4.97,8.5-5.93,12.31l-.85,3.37-1.53-2.33c-3.33-5.08-6.17-6.71-11.74-6.71-4.38,0-4.88,1.27-3.48,8.89.42,2.29-.06,6.74-1.53,14.19-2.19,11.11-2.53,19.99-.91,23.66.95,2.15.86,2.23-2.95,2.68-8.6,1.01-10.2,3.48-5.3,8.19,2.49,2.4,5.52,6.04,10.06,12.09,1.23,1.64,3.07,3.97,4.09,5.18,2.19,2.6,2.23,2.87.67,4.78-1.96,2.39-2.6,3.82-2.85,6.41-.3,3.05-.26,3.13,4.1,7.71,6.83,7.18,6.16,8.82-3.6,8.84-7.72.01-8.5.29-10.83,3.81-1.87,2.82-.97,10.64,1.39,12.09.9.56.21.72-2.62.61-2.21-.08-3.32.03-4.18.44-.64.31-1.68.66-2.31.78-5.79,1.16-7.34,14.24-2.36,19.91,1.33,1.51,2.48,2.15,4.83,2.65.97.21,1.77.51,1.77.67,0,1.71-4.64,6.97-7.06,8.01-.85.36-2.21.99-3.04,1.39-3,1.45-9.47,1.72-11.43.48-.2-.13-1.54-.71-2.98-1.29-3.49-1.41-3.45-2.74.21-7.5,3.03-3.94,0-7.07-4.7-4.86-4.54,2.14-8.03.87-10.39-3.78-.93-1.84-2.07-3.61-2.53-3.93-2.22-1.56-2.32-1.68-2.09-2.58.42-1.68,4.62-5.77,6.73-6.56,1.05-.39,2.54-1.11,3.31-1.6.77-.48,1.53-.88,1.7-.88s1.21-1.14,2.32-2.52c3.32-4.16,2.64-5.63-2.99-6.45-4.2-.62-4.77-1-7.47-5.02-2.88-4.29-3.42-5.92-3.61-10.87-.21-5.6-.14-5.79,2.82-6.82,6.03-2.11,11.19-9.99,8.79-13.41-1.18-1.69-6.2-.76-9.35,1.75l-.97.77-1.66-1.61c-.91-.89-2.17-1.86-2.79-2.18-.62-.31-1.79-1.19-2.6-1.96-.81-.77-1.53-1.4-1.61-1.4s-1.6-1.47-3.4-3.27c-4.04-4.06-4.55-5.58-2.69-8.07.59-.79,1.45-2.15,1.9-3.02.45-.87,1.32-2.35,1.93-3.31,1.45-2.28,1.5-4.08.14-5.3l-.96-.87-5.52.23-5.52.23,2.66-2.58c4.82-4.67,5.61-7.28,6.8-22.38.35-4.47,1.32-8.23,2.3-8.97.67-.5,1.57-2.68,1.57-3.79,0-3.54-7.15-3.97-13.48-.81-2.47,1.23-6.95,4.98-9.11,7.64-1.15,1.42-3.32,3.77-4.81,5.22-2.17,2.12-2.72,2.86-2.72,3.69,0,.92-.19,1.1-1.66,1.61-5.03,1.74-5.81,2.2-6.48,3.8-.34.83-.38.8-.66-.7-.91-4.87-5.79-10.16-9.38-10.16-1.66,0-2.24.66-2.81,3.26-.49,2.17-2.33,5.84-2.95,5.84-.74,0-2.32,1.39-2.32,2.04,0,.5-.44.6-2.89.64-5.4.1-11.21,2.76-12.24,5.61l-.42,1.15-.89-1.63c-1.95-3.55-6-5.1-8.39-3.22-1.37,1.08-1.64,5.79-.4,6.86.64.55.65.64.13,1.21-.39.44-.49.95-.34,1.74.12.62.12,1.02,0,.9-1.09-1.09-3.84,3.61-5.04,8.6-1.37,5.73-.84,7.94,2.26,9.31,2.89,1.28,2.41,1.44-4.42,1.54-10.18.14-12.15.04-15.23-.75-8.62-2.22-18.68-.07-18.68,4,0,2.2,1,2.62,6.19,2.62h4.57l.83,1.25c.83,1.25.85,1.25,2.9,1.08,2.95-.25,5.85.84,10.52,3.94,3.79,2.52,3.89,2.56,9.11,3.77,7.38,1.71,18.05,3.34,20.85,3.17,2.07-.12,2.39-.04,3.5.84,2.99,2.39,14.2,3.85,16.35,2.14,1.82-1.45,2.65-1.64,3.37-.74,1.17,1.45-.09,3.76-2.91,5.33-2.88,1.6-3.34,2.31-5.36,8.18-.72,2.1-.8,2.18-2.16,2.4-.77.12-2.08.6-2.91,1.05-1.2.63-1.33.27-2.21.91-.3.23-.54.59-1.11.99-.57.4-1.19.71-1.57.93-2.05,1.17-3.6,2.33-3.6,3.08,0,1.27,2.58.16,7.79-3.35,2.55-1.72,3.31-2.06,4.55-2.06,3.48.01,2.86,1.04-2.37,3.97-4.51,2.52-5.33,4.12-1.35,2.63,2.56-.96,4.95-2.36,7.38-4.35,1.95-1.58,2.67-1.86,3.09-1.18.49.79-4.07,4.72-6.32,5.46-1.22.4-1.52,1.94-.42,2.15.91.17,4.95-2.34,7.53-4.68l2.21-2.01,1.38.41c2.38.71.93,2.89-3.49,5.24-2.92,1.55-3.69,2.85-1.71,2.85,1.33,0,7.02-3.82,7.76-5.21.49-.92,1.34-1.45,2.33-1.45,2.11,0,1.52,1.16-1.58,3.12-2.19,1.38-2.87,2.43-1.94,3,.68.42,3.9-1.68,6.89-4.49,2.08-1.96,2.49-1.45.66.82-2.4,2.97-1.72,4.45.88,1.91,1.56-1.52,2.07-1.43,1.24.23-.77,1.53-.71,2.02.29,2.47.5.23.77.58.66.87-.76,1.97,1.38,1.58,2.32-.43,1.38-2.94,1.93-1.55.72,1.86-1.47,4.19.31,5.03,1.99.93.66-1.6,1.86-2.17,1.86-.88,0,.98-.94,3.46-1.74,4.58-.84,1.17-.96,3.16-.2,3.16.59,0,1.9-1.66,2.93-3.7,1.76-3.5,4.15-2.28,2.53,1.3-.83,1.83-.9,3.21-.18,3.8.53.44.78.02,2.56-4.29.41-.98,1.46-1.34,1.46-.5,0,.25-.71,1.92-1.57,3.7-2.98,6.13-1.12,6.57,2.11.49,1.58-2.96,1.91-2.95,1.91.07,0,3.66,1.23,3.5,1.91-.25.34-1.91.52-2.24,1.34-2.53,1.34-.47,1.41-.24.78,2.8-.64,3.09-.46,4.71.52,4.71.52,0,.69-.37.89-1.93.26-2.09.86-2.97.86-1.27,0,4.16,1.62,2.53,2.47-2.48.51-3,1.57-4.22,1.14-1.3-.36,2.4-.36,5.43-.01,5.78.51.51.98-.44,1.33-2.69.69-4.4,1.18-4.04,1.73,1.26.38,3.64.49,4.03,1.2,4.03.57,0,.91-1.92.65-3.79-.31-2.34.15-4.16.88-3.42.46.45.64,1.52.8,4.71.34,6.77,1.25,6.97,2.01.43.62-5.29.92-4.97,2,2.07.28,1.81.69,2.45,1.58,2.45.43,0,.93.64,1.55,2,.5,1.1,1.56,2.86,2.35,3.91,1.73,2.29,1.61,2.65-1.33,3.84-6.21,2.51-12.36-.19-17.05-7.47-2.46-3.82-2.41-3.8-7.18-3.87-10.71-.16-17.52-5.56-21.23-16.84-.99-3.01-1.5-3.24-4.33-1.96-6.05,2.76-15.73,3.32-23.03,1.34-3.49-.95-8.49-1.57-12.77-1.6-1.95,0-2.19-.08-1.75-.5,1.01-.97,5.23-3.59,9.91-6.16,2.1-.6,3.06-.71,4.69-1.56.4-.32,1.83-.91,2.16-1.18.01-.11-.52-.07-.53-.08-.43-.11-1.41.07-2.17.04-1.59.01-4.99.93-8.48,3.17-1.64,1.05-3.42,2.14-3.97,2.42-1.27.65-2.68,2.31-2.68,3.17,0,.72-1.76,2.48-3.42,3.42-.57.32-2.35,1.37-3.95,2.34-1.6.96-3,1.75-3.11,1.75-1.69,0-9.31,10.97-11.2,16.11-.64,1.73-1.35,3.47-1.59,3.85-2.9,4.72-3,17.27-.17,23.11.19.39.65,1.94,1.03,3.46,1.24,4.9,6.39,15.25,10.08,20.27,1.1,1.49,2.95,4,4.1,5.57,1.52,2.06,8.02,9.05,8.42,9.05.04,0,2.66,2.35,5.52,4.95,1.19,1.08,4.22,3.32,6.72,4.97,2.5,1.65,5.66,3.85,7,4.89,2,1.55,3.26,2.17,6.83,3.4,2.41.83,4.54,1.63,4.74,1.79,1.73,1.33,11.2,4.49,15.04,5.01,2.31.31,4.79.66,5.52.77l1.31.2v1.75c0,2.03,2.5,5.05,6.37,7.68,5.26,3.58,10.39,9.65,9.7,11.46-.19.49-.3,2.27-.24,3.96.09,2.89.05,3.12-.81,4.05-1.35,1.45-1.7,2.32-1.7,4.24,0,2.77-.7,3.37-3.61,3.06-1.29-.14-2.34-.4-2.34-.57s-.28-.33-.61-.33c-.34,0-2.27-.49-4.29-1.08-2.02-.59-4.47-1.27-5.43-1.52-1.99-.5-6.06-2.5-7.86-3.84-.66-.5-1.35-.9-1.52-.9s-.86-.26-1.52-.57c-.93-.44-1.71-.52-3.38-.34-1.2.13-3.02.22-4.06.2-1.58-.03-2.04.11-2.83.87-.9.86-1,.88-1.97.37-2.72-1.42-5.75.04-5.75,2.76,0,2.1,1.17,3.18,3.14,2.91l1.42-.19-1.23,1.68c-.68.92-1.23,2.09-1.23,2.6,0,1.64,1.75,4.06,2.95,4.07,1.93.01,2.3.35,2.3,2.07,0,2.46,2.21,4.58,4.76,4.58,1.49,0,1.91.16,2.74,1.02.76.79,1.5,1.11,3.28,1.42,1.27.22,3.18.64,4.25.93,1.07.29,4.31.66,7.2.83,4.94.28,9.04.9,11.03,1.68.48.19.97.32,1.08.29.11-.03.45.15.74.39.29.24,1.45.76,2.57,1.14,3.11,1.07,3.55,1.47,4,3.61.51,2.44,1.58,3.52,3.32,3.32,1.18-.14,1.25-.09,1.25.87,0,.56.31,1.41.7,1.9.39.49.7,1.31.7,1.82,0,2.37,3.27,3.89,5.29,2.45.88-.62,1.02-.65,1.02-.16,0,.31.49,1.18,1.09,1.92.6.74,1,1.5.89,1.67-.33.53,1.79,2.79,2.82,3.02,9.09,2.04,12.93,1.74,19.36-1.51,3.36-1.69,4.2-1.96,4.2-1.34,0,.26.56,1.02,1.24,1.69l1.24,1.21,4.18.12c6.3.19,8.82-.47,11.45-2.97l2.02-1.92,3.33.87c8.66,2.27,17.65,1.85,22.67-1.05,1.39-.8,1.53-.82,2.33-.3.74.48,2.13.54,10.36.45l9.51-.11,1.11-1.25c.61-.69,1.34-1.59,1.63-2.01.37-.56.87-.76,1.81-.76,1.68,0,3.45-1.41,3.45-2.75,0-2.96-5.97-5.97-8.07-4.06-.54.49-.7.43-1.78-.65l-1.19-1.19-9.63-.05c-5.29-.03-10.25.1-11.02.28-1.95.46-1.89.36.96-1.61,4.34-2.99,8.62-5.03,10.58-5.03.84,0,1.59-1.28,1.59-2.71,0-2.04-2.36-3.82-5.25-3.97-.29-.01.31-.31,1.34-.66,2.49-.85,3.77-2.13,5.18-5.18.48-1.43,1.56-2.39,2.24-3.59,1.44-1.99,2.57-4.89,4.59-6.5.86-.53,7.81,3.99,12.48,8.14l2.89,2.56h4.98c4.94,0,5,.01,6.55,1.04.86.57,2.04,1.14,2.63,1.26.58.12,2,.69,3.14,1.26,1.14.57,3.1,1.43,4.35,1.9,2.58.97,14.83,7.03,17.21,8.52,6.98,4.35,9.11,5.63,9.37,5.63.17,0,.83.47,1.48,1.04,4.71,4.2,6.76-1.09,2.71-7.01-3.61-5.28-10.27-12.28-13.48-14.18l-.99-.59.92-.99c1.5-1.61.28-6.25-2.56-9.66-.46-.56-.91-1.2-.98-1.43-.59-1.76-9.04-8.51-13.48-10.75l-3.08-1.56.09-1.95c.11-2.31-.67-4-3.1-6.68l-1.58-1.75,5.08-.22c9.41-.41,12.87-1.38,21.69-6.09,3.09-1.65,6.21-3.25,6.94-3.54.72-.3,2.73-1.22,4.46-2.05,4.13-1.97,6.44-2.63,9.29-2.63s3.49-.54,3.49-2.69c0-1.46-.32-2.02-2.87-4.97-1.86-2.15-1.76-2.81.68-4.42,3.51-2.32,4.99-3.71,9.84-9.27,7.1-8.14,13.05-13.7,16.34-15.26.67-.32,1.22-.7,1.22-.86,0-.35,3.02-1.39,4.03-1.39,1.98,0,2.93-2.99,1.57-4.91-1.1-1.54-4.69-4.07-6.73-4.74-3.12-1.02-3.42-1.79-1.67-4.19.57-.77,1.29-1.77,1.62-2.22,2.34-3.21,2.49-15.97.28-22.75-.85-2.59-1.26-3.42-4.45-9-2.82-4.93-3.8-9.36-2.71-12.24,1.82-4.78-.88-6.47-7.49-4.68-3.52.95-8.96,6.68-8.96,9.44,0,.17-.16.3-.35.3s-.35-.14-.35-.31c0-.6-3.36-4.04-6.47-6.62-2.7-2.23-4.73-4.44-4.73-5.13,0-.35,2.05-.2,2.28.16.27.43,5.91.47,6.75.04.33-.17,1.4-.49,2.36-.72,8.95-2.08,13.48-15.53,10.52-31.19-.76-4.03-1.95-9.51-2.21-10.16-.3-.76-.3-2.25,0-2.47.14-.11.36-1.39.49-2.85l.23-2.66-1.16-.6c-2.05-1.06-8.66.19-13.04,2.47-2.89,1.5-3.05,1.43-3.06-1.52-.05-8.87-6.89-15.12-16.56-15.12-2.87,0-2.94-.34-.33-1.52,1.11-.5,2.88-1.7,3.93-2.67,1.06-.97,2.05-1.76,2.21-1.76s1.19-.84,2.28-1.86c2.85-2.67,3.82-3.34,5.45-3.77,2.85-.76,3.44-2.49,1.7-5-.93-1.34-3.71-3.02-5.02-3.02-.34,0,.47-1.06,2.01-2.65,2.76-2.84,4.18-5.36,5.92-10.49.52-1.54,1.06-2.96,1.2-3.15.14-.19.53-1.37.87-2.63,1.66-6.19,3.43-9.56,5.91-11.26,4.53-3.09,4.83-4.88,1.27-7.49-6.05-4.44-18.78-4.31-24.3.24-.4.33-1.34,1.12-2.09,1.75l-1.36,1.15.58-1.12c1.95-3.78,1.3-15.74-1.11-20.35-.37-.7-1.64-3.13-2.82-5.39-3.29-6.29-3.07-8.13,1.73-14.09,4.5-5.6,5.58-8.14,5.58-13.21,0-2.72-.63-4.06-2.02-4.11h0ZM881.03,286.71c.51-.14.52.4.52,1.83,0,5.11-2.03,9.2-7.59,15.28-4,4.38-3.96,8.8.15,14.86,2.91,4.29,4.03,7.81,4.62,14.45.57,6.48.19,7.85-3.19,11.54-2.47,2.7-3.15,4.45-2.25,5.82.74,1.12,1.22,1,2.13-.56,2.13-3.66,8.07-8.47,12.39-10.05,3.33-1.21,11.35-1.07,13.17.24.19.14,1.06.52,1.93.84,1.5.56,4.57,2.83,4.2,3.1-.1.07-1.09.74-2.22,1.49-3.22,2.16-5.62,5.5-6.36,8.85-2.73,12.36-6.64,20.02-11.56,22.63-3.41,1.81-3.05,3.07,1,3.52,2.22.25,3.12.61,4.34,1.72.94.86,1.04,1.99.17,2-1.27,0-4.26,2.15-8.3,5.96-4.58,4.31-5.59,4.9-9.96,5.78-3.32.67-4.73.56-7.21-.56l-1.74-.78,3.67-1.17c2.02-.64,3.99-1.17,4.38-1.17.9,0,2.27-.95,2.27-1.56,0-1.11-2.25-.91-7.48.64-3.93,1.16-5.17,1.23-4.26.23.66-.73,1.92-1.2,4.2-1.59,1.65-.28,5.32-1.9,7.57-3.34.89-.57,2.73-1.42,4.08-1.88,4.22-1.43,4.97-2.32,3.05-3.58-1.58-1.03-7.7,1.27-10.94,4.11-.63.56-1.45,1.01-1.82,1.01s-.76.16-.88.35c-.96,1.56-1.15-.9-.21-2.74.37-.72.78-1.91.92-2.63.29-1.57,1.13-2.2,3.53-2.65,6.29-1.19,10.37-4.44,13.45-10.72,1.69-3.45,2.12-5.14,1.39-5.59-.6-.37-2.2,1.74-3.98,5.24-2.63,5.17-8.29,9.55-11.92,9.23l-1.25-.11,2.38-1.91c3.88-3.11,4.66-4.45,7.28-12.54,2.9-8.93,3.33-9.6,10.04-15.19,1.91-1.59-.41-2.92-2.56-1.47-5.29,3.58-8.66,8.83-10.87,16.92-1.34,4.94-2.42,6.98-4.6,8.82-2,1.67-2.41,1.59-3.57-.69l-.87-1.71,1.91-1.88c2.97-2.93,6.57-11.7,5.39-13.12-.73-.88-1.41.17-2.98,4.64-2.47,7.03-4.4,8.63-7.42,6.17-3.9-3.18-5.91-4.36-8.63-5.04-2.26-.57-2.26-.8.04-2.2,3.37-2.06,6.84-6.15,8.17-9.65,1.27-3.33,3.42-19.05,2.72-19.88-1.16-1.4-1.94.83-2.76,7.94-1.36,11.7-2.35,14.12-7.44,18.15-3.97,3.15-7.27,4.23-11.06,3.63l-1.53-.24,2.83-2.55c9.1-8.21,13.37-18.74,14.41-35.53.43-6.99.8-9.4,1.78-11.69.98-2.3.91-2.93-.37-2.93-2.26,0-3.56,3.58-4.2,11.56-.2,2.41-.52,6.39-.72,8.86-.62,7.69-2.93,14.54-6.75,20.01-.81,1.17-1.69,2.53-1.94,3.03-.83,1.64-10.28,10.76-11.43,11.02-.93.21-.68-.14,2.12-3.04,6.95-7.21,11.36-15.65,12.05-23.07.68-7.33.84-14.11.33-13.94-1.27.42-1.75,2.26-2.26,8.75-1.09,13.7-3.73,18.72-16.92,32.24-6.66,6.82-6.96,6.53-2.65-2.54,4.19-8.82,6.01-14.97,4.92-16.63-1.09-1.66-1.51-.93-2.51,4.33-.39,2.08-1.41,4.89-3.48,9.63-1.61,3.68-3.23,7.72-3.61,8.97-1.97,6.62-2.24,7.35-2.69,7.35-2.79,0-1.83-11.53,1.66-19.98,3.98-9.64,5.96-21.53,3.66-21.97-1.01-.2-1.67,1.5-2.35,6.1-.86,5.76-1.61,8.35-4.04,14.11-2.97,7-3.74,10.41-3.6,15.8.11,4.11.07,4.38-.55,4.38-2.73,0-2.75-10.27-.04-18.74,1.25-3.91,1.27-5.01.09-4.84-2.23.32-4.23,8.76-3.98,16.83l.2,6.56-1.35.69c-1.93.98-1.95,1.46-.15,3.21,2.5,2.44,2.64,2.88,2.96,9.76.16,3.37.38,6.87.5,7.76.64,4.87-4.46-1.16-6.65-7.86-2.06-6.3-3.21-8.15-4.4-7.07-.64.58-.64.64.34,2.4.55.99,1.58,3.77,2.28,6.18,1.63,5.57,2.29,6.67,6.12,10.18,3.07,2.81,3.82,3.94,4.38,6.55.33,1.54-.36,1.5-2.32-.14-.84-.7-2.66-2.04-4.05-2.98-7.26-4.91-9.33-8.26-10.75-17.46-2.23-14.45-2.54-15.79-3.88-16.67-2.02-1.33-2.34.16-1.08,5.12.46,1.83,1.09,5.32,1.41,7.76,1.87,14.62,3.25,17.26,12.4,23.71,3.84,2.71,4.17,3.3,1.94,3.47-2.51.19-10.04-6.07-13.96-11.6-1.87-2.64-3.78-3.15-3.21-.85.28,1.11,9.63,11.46,11.13,12.32.65.37,1.3.88,1.46,1.14s.48.47.72.47.9.49,1.47,1.08c.57.59,1.69,1.47,2.5,1.95,1.92,1.13,3.6,3.07,3.6,4.16,0,1.5-.94,1.09-7.22-3.19-4.18-2.84-7.51-4.34-8.68-3.89-.86.33-.7,1.67.23,1.91,1.27.33,5.58,2.71,9.27,5.12,1.88,1.23,4.15,2.58,5.04,2.99,3.7,1.73,4.49,3.89,1.31,3.62-5.45-.47-8.86-1.96-13.07-5.71-7.23-6.46-15.97-9.48-15.16-5.25.1.51.61.72,4.82,1.95,2.42.7,4.89,2.32,8.56,5.58,4.16,3.71,8.06,5.33,16.3,6.83,3.85.7,5.54,1.4,5.89,2.45.43,1.29-14.82-.2-17.54-1.71-3.19-1.77-7.29-2.29-8.09-1.01-.53.85-.27.98,3.17,1.68,1.7.34,4.58,1.22,6.41,1.95l3.33,1.33,8.05.2c10.72.27,11.69.64,10.16,3.93-2.06,4.43-.44,7.63,2.62,5.2.89-.7,1.72-1.05,2.53-1.05,1.5,0,4.83.97,4.83,1.41,0,.2-.35.19-.9-.01-1.18-.45-3.2-.44-3.49.02-.4.65.46,1.24,3.81,2.56,5.01,1.98,5.98,3.69,1.05,1.85-6.58-2.47-18.68-2.58-18.68-.18,0,1.1,1.21,1.36,6.42,1.36,4.37,0,5.48.12,8.16.89,7.22,2.07,8.31,3.55,2.49,3.37-3.63-.11-3.77-.09-3.77.62,0,.8,1.17,1.42,2.66,1.42,2.45,0,5.19,2.42,4.57,4.03-.55,1.44-6.28.21-10.6-2.26-5.92-3.4-9.02-4.14-17.55-4.2-1.4,0-2.54-.1-2.54-.21,0-3.7,8.23-12.04,12.56-12.73,2.19-.35,3.21-1.14,2.63-2.06-.81-1.29-3.43-.95-8.01,1.06-3.94,1.72-6.69,1.84-9.28.42-.48-.27-1.9-.9-3.15-1.41-1.25-.51-2.43-1.04-2.63-1.19-.19-.14-1.53-.87-2.98-1.6-3.88-1.97-4.64-2.64-7.43-6.53-1.4-1.95-3.75-5.21-5.22-7.26-2.46-3.42-7.39-8.61-9.36-9.86l-.83-.53,1.41-.98c1.24-.86,1.98-1.04,6.04-1.46,4.65-.49,6.59-1.13,6.06-2.01-.14-.23-.78-1.19-1.42-2.13-2.33-3.42-2.03-12.86.75-23.5,2.08-7.95,2.45-13.59,1.22-18.65-1.01-4.19-.83-4.35,3.77-3.31,5.17,1.17,6.59,2.37,9.35,7.87,2.23,4.44,3.41,4.19,3.88-.79.44-4.55.96-5.59,8.95-18.03,5.25-8.17,6.99-13.89,6.99-22.96,0-.59,2.32-.35,4.04.41,6.19,2.74,9.73,7.13,10.7,13.26,1.01,6.35,2.64,6,6.56-1.4,1.52-2.87,1.94-5.04,3.01-15.41,1.26-12.35,4.62-16.16,19.63-22.26,5.44-2.21,9.35-4.12,11.73-5.74.78-.53,1.27-.86,1.58-.94h0ZM720.13,359.37c.98,0,1.77.17,2.24.51.6.44.57.59-.61,2.89-1.91,3.71-1.99,4.03-2.53,11.05-.5,6.4-.64,7.38-1.71,12.34-1.19,5.5-5.92,10.39-11.25,11.62-2.88.67-2.98.57-1.46-1.31,3.82-4.71,4.6-12.98,1.72-18.28-.97-1.78-4.41-5.61-5.28-5.87-1.3-.39,4.29-6.81,8.33-9.57,2.94-2.01,7.6-3.39,10.55-3.37h0ZM847.3,361.19c1.52,0,3.1.12,4.73.33,8.75,1.14,15.51,8.24,15.09,15.86-.18,3.33-1.58,7.81-2.56,8.18-.24.09-.62.61-.84,1.14-1.8,4.35-10.66,6.88-15.43,4.41-2.03-1.05-3.49-5.77-2.28-7.37,1.49-1.98-.08-4.01-3.1-4-5.32.02-6.94,2.95-6.97,12.6-.02,7.69,1.08,10.21,8.51,19.43,7.31,9.08,7.24,8.93,3.92,8.93-3.02,0-2.58.42-8.48-8.03-9.7-13.88-11.54-22.25-6.98-31.72,3.03-6.29,6.1-8.33,12.82-8.53,5.17-.15,5.98.15,8.08,3.02l1.48,2.01-1.65.09c-2.88.16-3.16.31-3.59,1.89-1.45,5.37,4.42,7.58,7.87,2.96.56-.75.72-1.49.72-3.3,0-10.39-16.33-13.7-24.89-5.04-4,4.04-5.57,8.2-5.98,15.89-.12,2.3-.35,4.25-.5,4.34-.71.44-3.53-4.64-4.86-8.77-1.42-4.39-2.35-4.29-2.02.23.3,4.15,2.7,8.13,6.97,11.57,1.15.93,1.67,1.64,1.83,2.49.25,1.35,2.76,6.46,4.58,9.33,1.58,2.49,1.32,2.62-.95.49-2.72-2.56-5.17-3.32-5.17-1.6,0,.75,6.84,6.05,8.92,6.92,1.49.62,2.65,1.76,4.09,3.99,1.43,2.23,1.29,2.3-1.54.76-1.4-.76-3.49-1.65-4.64-1.97-2.8-.78-4.76-1.95-7.41-4.42-3.31-3.07-4.42-2.53-2.05,1,1.67,2.48,2.95,3.36,7.02,4.82,5.38,1.93,8.37,3.67,8.51,4.93.14,1.21.97,2.25,1.8,2.25,1.2,0,2.81,2.51,2.81,4.38,0,1.19-.56,1.38-1.69.57-1.61-1.14-3.91-1.95-4.34-1.52-.56.56-.08,1.42,1.15,2.1,3.52,1.94,4.18,2.5,4.18,3.55,0,1.51-.58,1.64-2.04.47-2.49-2-5.27-2.89-9.01-2.89-1.05,0-1.91-.13-1.91-.29,0-.74,1.8-1.85,3.61-2.21,3.59-.72,3.15-2.78-.71-3.28-6.84-.88-11.19-5.05-15.49-14.86-.93-2.12-2.03-4.29-2.45-4.82-1.45-1.85.46-2.37,4.13-1.13,3.22,1.09,4.13.18,2.54-2.55-1.72-2.96-3.33-11.3-3.88-20.13-.34-5.38-.77-8.14-1.57-10.01-.22-.52-.07-.61.97-.61,1.54,0,3.19,1.31,3.74,2.96,1,3.03,2.44,2.52,3.7-1.31,2.88-8.76,10.6-13.6,21.23-13.53h0ZM676.41,372.74c.56-.08,1.42.46,2.85,1.58,6.14,4.82,6.77,12.39,1.64,19.7-2.46,3.5-2.57,3.53-4.93,1.29-3.69-3.52-10.23-3.71-17.5-.52-2.63,1.15-3.13,1.25-3.14.61,0-.24-.17-1.46-.38-2.71-.63-3.9-.37-4.41,3.36-6.48,6.6-3.66,9.98-3.44,9.98.65,0,2.88.77,3.87,2.03,2.61.59-.59.52-4.5-.1-6-.72-1.73-.12-1.91,1.36-.42,1.65,1.65,2.23,3.62,1.66,5.56q-.9,3.03.05,3.03c2.86,0,2.86-6.29,0-10.06l-.86-1.13,1.27-1.74c.9-1.23,1.38-2.36,1.65-3.86.24-1.34.5-2.03,1.07-2.11h0ZM698.91,373.88c.45-.07.95.3,1.86,1.03,8.31,6.68,7.18,18.62-2.18,23.04-2.47,1.17-2.78,1.84-.93,2.02,1.62.16,1.69.89.26,2.56-.69.8-1.67,2.54-2.19,3.86-1.18,3.01-1.13,3.02-3.49-.64-2.63-4.08-4.41-6.13-6.67-7.68-4.18-2.88.14-3.86,4.97-1.14,2.44,1.38,3.18,1.21,5.61-1.28,5.41-5.54,6.01-12.63,1.44-17.07l-1.56-1.52,1.27-1.64c.75-.98,1.17-1.47,1.62-1.54h0ZM693.71,379.77c.86-.03,1.44.34,2.02,1.1,2.88,3.81,2.44,7.97-1.28,12.04-1.74,1.9-1.75,1.91-2.48,1.24-.96-.87-2.05-1.43-3.84-1.95l-1.45-.43.09-2.43c.05-1.34.25-3.46.46-4.73l.37-2.3,2.52-1.27c1.63-.82,2.75-1.24,3.61-1.27h0ZM842.28,382.49c.48,0,.76.32.6,1-1.79,7.3-.36,10.5,6.17,13.77,1.96.98,4.29,2.49,5.4,3.5,2.05,1.86,3.19,2.13,3.04.73-.14-1.24-1.72-3.06-3.94-4.55l-2.02-1.35,4.37-.61c2.4-.33,4.4-.55,4.43-.49.13.23.99,2.58,1.37,3.73.54,1.62-.51,6.36-1.7,7.72-.06.07-1.01-.61-2.12-1.51-2.45-1.99-3.69-2.64-8.01-4.19-9.65-3.45-14.27-11.64-9.42-16.7.66-.69,1.35-1.04,1.84-1.05h0ZM644.87,385.39c.81,0,1.98.38,2.98,1.06,1.28.87,3.58,3.95,4.31,5.8,1.05,2.64-.18,5.57-4.38,10.46-3.13,3.64-4.71,6.29-4.71,7.87s-2.91,1.79-4.03.2c-1.49-2.13.73-10.57,3.57-13.61.86-.92.89-.92,2.42-.4.85.29,1.78.44,2.07.33,1.23-.47.13-2.21-1.62-2.56-.55-.11-1.18-.42-1.4-.68-.72-.87,1.7-.57,3.11.39,1.44.98,2.45,1.12,2.74.38.49-1.28-2.06-3.12-4.77-3.43-.92-.11-1.82-3.94-1.26-5.39.11-.29.47-.43.95-.43h0ZM669.34,395.45c1.41,0,2.6.23,3.4.73.62.38,1.61,1.55,2.2,2.59,1.35,2.38,1.79,2.55,3.89,1.45,2.3-1.2,2.66-1.14,5.28.84,2.55,1.93,3.69,3.28,5.78,6.86.79,1.35,1.76,2.75,2.17,3.12,1.08.98.94,1.16-1.28,1.62-4.18.86-7.79,4.13-7.79,7.06,0,1.33-.18,1.35-3.39.4-3.38-1-4.76-.8-7.15,1.04-2.52,1.93-2.88,2.66-3.05,6.21l-.15,3.15h-5.87v-1.84c0-2.26-.59-3.03-4.03-5.27-4.17-2.72-12.69-10.19-13.01-11.4-.51-1.92,4.33-8.89,7.9-11.37,4.54-3.16,10.85-5.19,15.09-5.18h0ZM668.36,396.84c-.45.05-1,.42-1.66,1.12-1.22,1.28-2.35,1.9-6.64,3.63-7.23,2.91-9.12,7.5-5.81,14.03,1.78,3.51,2.92,4.6,5.14,4.93,4.42.66,8.52-1.3,11.54-5.52l.68-.95,1.93.67c5,1.75,10.21-.17,12.44-4.58,1.71-3.37,1.11-4.45-1.71-3.08-2.06,1-3.23.74-7.1-1.58-1.71-1.03-3.98-2.32-5.03-2.88l-1.92-1.01-.36-2.28c-.28-1.76-.76-2.58-1.51-2.5ZM865.99,398.27c.23.04.51.18.89.38.93.5.85,1.19-.34,2.91-1.21,1.76-2.68,5.15-3.02,6.97-.29,1.56-.62,1.85-1.25,1.1-.38-.46-.36-.71.13-1.48,1.52-2.39,2.32-4.52,2.53-6.68.25-2.57.38-3.32,1.06-3.2h0ZM839.7,398.69c.23-.06.75.21,1.9.87,2.37,1.36,2.74,1.78,3.4,3.76,1.17,3.54,3.65,7.8,6.92,11.9,3.11,3.9,4.07,5.48,3.34,5.48-.17,0-.75-.6-1.28-1.32-.53-.73-2.58-3.37-4.55-5.87-4.09-5.18-9.9-13.61-9.9-14.37,0-.26.03-.42.17-.45h0ZM721.65,399.23c1.16-.05,1.28.28,1.06,1.29-.81,3.71-7.2,12.83-8.99,12.83-.84,0-6.01,2.52-8.4,4.1-1.46.96-2.57,1.54-2.48,1.28.21-.54,3.36-2.93,3.86-2.93.63,0,1.94-1.71,1.73-2.26-.39-1.01-3.6.19-5.9,2.21-1.51,1.33-2.25,1.47-1.64.31,1.72-3.25,6.8-7.94,11.39-10.52,1.61-.91,2.07-1.35,2.16-2.1.34-2.93-9.96,3.67-13.22,8.48-1.69,2.49-2.7,3.43-2.3,2.13.43-1.38,1.47-3.32,2.39-4.42,2.97-3.56,1.05-4.37-2.08-.88-1.81,2.02-2.21,1.71-1.15-.91,2.17-5.39,5.66-7.3,14.34-7.84,3.18-.2,6.64-.47,7.7-.62.65-.09,1.15-.14,1.54-.16h0ZM879.16,399.26c2.27.04,4.6.54,6.71,1.59,8.09,4,10.53,10.99,6.3,18.04-3.16,5.27-3.66,7.68-2.56,12.48,1.84,8.01,1.32,10.29-2.58,11.38-2.45.69-2.59.34-.74-1.74,1.94-2.19,3.48-5.26,3.15-6.3-.46-1.43-1.61-.65-2.94,2-1.55,3.09-7.41,8.25-8.33,7.33-.15-.15.41-1.57,1.26-3.14,6.74-12.61,7.2-14,6.96-21.15-.23-6.93-1.72-10.49-4.08-9.74-.98.31-.94,1.08.19,3.56,2.65,5.83,1.38,13.01-3.98,22.51-1.46,2.58-3.27,6.01-4.02,7.62-2.92,6.23-2.78,2.27.24-6.72,2.38-7.09,2.6-8.21,1.77-8.9-.69-.57-1.33.48-2.29,3.77-.41,1.41-1.38,4.09-2.15,5.95-.77,1.88-1.76,5.2-2.22,7.47-.81,4.02-2.28,8-2.96,8-.48,0-.66-.8-.92-4.03-.39-4.92-1.96-9.28-3.34-9.28-.44,0-.42,1.97.03,3.5.2.67.68,3.19,1.07,5.6.39,2.41.92,5.17,1.18,6.13.74,2.74,1.03,6.58.48,6.4-1.93-.64-5.48-11.75-6.76-21.15-.61-4.48-1.1-6.91-1.61-7.9-2.31-4.52-4.59-3.87-2.96.85.48,1.4,1.12,4.43,1.43,6.73,1.68,12.83,5.02,21.67,10.31,27.24,2.79,2.95,3.41,4.11,2.19,4.11-2.1,0-7.24-5.14-11.74-11.73-2.68-3.93-4.09-5.25-4.09-3.85,0,.32,1.29,2.74,2.86,5.37,4.51,7.52,9.91,12.31,13.88,12.31,1.41,0,2.06.33,4.78,2.46,1.16.91,3.66,2.54,5.54,3.63,5.43,3.12,7.96,4.87,7.96,5.5,0,.58-.74.34-2.78-.92-3.68-2.27-7.04-3.3-11.93-3.67-2.41-.18-4.98-.41-5.71-.52-1.35-.2-5-2.73-11.17-7.74-3.13-2.54-3.31-2.61-3.82-1.28-.32.84-.26,1.03.44,1.49.44.29,1.75,1.37,2.91,2.41s3.33,2.59,4.83,3.46c3.46,2.02,3.46,2.35-.03,2.06-8.14-.68-12.19-3.06-16.85-9.9-2.94-4.31-4.22-5.33-4.8-3.81-.7,1.82,5.19,10.06,9.11,12.74,1.46,1,6.62,2.92,9.07,3.38,1.7.32,1.67.97-.08,2.13-1.85,1.22-6.39.11-10.97-2.67-2.37-1.45-4.16-.35-2.28,1.4.72.67,6.66,3.18,8.76,3.7,1.69.42,1.83.94.92,3.57-.66,1.92-.82,3.1-.82,6.14,0,2.07-.09,3.77-.19,3.77-.39,0-2.74-2.69-4.49-5.13-1.65-2.29-2.35-2.93-3.22-2.93-1.69,0,4.74,8.94,8.06,11.19,1.17.8,2.37,1.94,2.69,2.57.31.62,1.2,1.78,1.97,2.58,2.01,2.09.57,3.04-2.59,1.72-1.92-.8-6.94-6.78-6.94-8.27,0-2.69-6.09-10.05-10.07-12.16-3.46-1.84-3.41-2.12.49-2.49,4.77-.46,6.72.43,8.18,3.73.81,1.82,2.27,2.14,2.67.58.41-1.62-2.58-6.09-4.07-6.09-1.68,0-8.01-5.94-9.39-8.81-.4-.83-1.21-3.96-1.8-6.95s-1.31-6.27-1.61-7.3c-.68-2.34-1.07-2.12,4.46-2.49,6.41-.43,8.2-.15,10.28,1.59,2.33,1.96,2.46,2.04,3.09,1.79.95-.36.68-2.09-.57-3.74-5.16-6.81-5.49-9.08-2.74-18.79,2.56-9.02,2.58-11.68.14-15.23-1.5-2.17-1.3-2.4,2.06-2.41,7.41-.02,12.49,3.55,13.13,9.21.57,5.08,2.18,4.31,4.31-2.05,1.6-4.75,1.52-4.61,5.01-8.68,3.38-3.94,4.27-5.7,4.26-8.47-.01-3.92-2.27-6.47-5.74-6.47-1.76,0-1.99-.4-1.29-2.23,1.44-3.77,6.13-5.97,11.12-5.89h0ZM666.81,401.4c.25.08,0,.63-.79,1.43-1.49,1.53-2.48,1.93-5.52,2.28-2.14.24-2.71-.18-1.05-.79,3.51-1.28,5.94-2.24,6.39-2.54.5-.32.82-.44.97-.39h0ZM847.92,402.51c.43-.06,1.04.16,1.75.67.6.43,1.25,1.46,1.72,2.74.79,2.17,2.76,5.09,6.5,9.65,2.07,2.52,5.11,8.96,5.11,10.81,0,1.3-2.58-2.11-5.99-7.93-1.23-2.1-2.88-4.55-3.65-5.43-3.97-4.52-6.1-7.84-6.11-9.51,0-.61.25-.94.68-1h0ZM669.88,404.63c.63,0,1.25.13,1.94.37.65.22,2.57,1.31,4.25,2.42,1.68,1.11,3.57,2.13,4.2,2.26,2.77.6,2.89,1.43.38,2.61-3.09,1.45-6.4.92-10.16-1.63-2.66-1.8-5.56-3.26-6.49-3.27-.34,0-.61-.16-.61-.35s.2-.35.45-.35,1.39-.47,2.54-1.04c1.42-.7,2.47-1.03,3.51-1.02h0ZM853.76,405.26c.41-.07,1.36.47,2.28,1.39,1.27,1.27,1.96,3.54,1.07,3.54-.64,0-3.56-3.8-3.57-4.64,0-.17.08-.27.22-.29h0ZM659.98,407.06c.34,0,.56.11.43.34-.12.19-.64.35-1.16.35-.74,0-.83-.08-.42-.35.35-.22.81-.34,1.15-.34ZM663.46,409.51c.35-.05,1.86.62,3.38,1.51,1.03.61,1.96,1.3,2.05,1.55.35.88-2.96,5.34-3.96,5.34-.08,0-.15-1.23-.15-2.73,0-2.04-.18-3.08-.7-4.1-.39-.76-.7-1.43-.7-1.5,0-.04.03-.06.08-.06h0ZM869.19,410.24c.67.06,1.3.4,1.93,1.02,1.54,1.54,1.09,4.49-1.11,7.34-.85,1.1-1.76.67-2.2-1.03-.16-.63-.92-2.14-1.68-3.34-1.57-2.48-1.61-2.63-.77-2.64.34,0,1.09-.31,1.66-.68.79-.51,1.5-.73,2.17-.68h0ZM858.07,411.24h.91c.5,0,1.36.24,1.92.53,1.23.64,2.58,2.55,4.51,6.38,1.65,3.29,1.73,3.85.71,5.14-.71.9-1.72.79-1.72-.2,0-.71-3.49-7.67-4.87-9.69l-1.46-2.15ZM659.78,411.94c.43-.03.88.14,1.27.53,1.42,1.42.87,4.25-.95,4.89-1.45.51-2.4-.72-2.26-2.92.1-1.45.98-2.43,1.93-2.49ZM910.85,412.66c.41.06.47.33.36.77-.1.43-.43,1.42-.73,2.19-.77,1.99-.69,3.94.29,7.82,3.37,13.32,3.78,19.73,1.64,26.25-3.11,9.51-8.91,13.36-17.21,11.45-4.06-.94-5.05-.89-5.19.26-.25,2.17,1.86,4.89,6.18,7.95,5.89,4.17,7.05,6.25,5.32,9.49-1.02,1.91-4.46.11-8.27-4.33-.87-1.02-1.34-1.27-2.34-1.27-2.12,0-10.48-7.63-11.62-10.6-1.49-3.91.44-5.59,8.32-7.23,9.52-1.98,9.65-2.03,11.68-4.1,3.64-3.72,4.82-9.92,3.13-16.45-.3-1.15-.71-3.27-.91-4.7-.4-2.83-.92-3.69-2.02-3.34-1.4.44-1.49,3.28-.25,8.05,3.09,11.9-.71,16.63-14.36,17.9-5.28.49-8.87,4.35-8.49,9.11.29,3.63,1.86,5.9,6.67,9.66,5.87,4.58,6.05,4.86,4.93,7.66-.71,1.76-1.04,1.75-4.34-.16-1.44-.84-3.76-2.17-5.14-2.95-7.46-4.23-11.95-14.65-8.94-20.77,2.8-5.68,5.74-7.77,12.26-8.71,11.37-1.64,14.33-5.16,11.42-13.6-3.1-8.99.99-15.66,11.6-18.89,3.62-1.1,5.31-1.55,6.01-1.44h0ZM644.88,414.8c.12-.01.65.29,1.56.91.79.53,3.31,2.73,5.6,4.88,2.38,2.23,5,4.35,6.09,4.92,3.4,1.77,3.37,4.3-.1,6.41-2,1.22-2.74.42-1.3-1.41,1.57-2.01-1.02-5.69-9.15-12.98-2.02-1.81-2.91-2.7-2.7-2.72h0ZM716.49,415.12s.09.02.15.04c.25.08.63.68.85,1.34.29.87.68,1.26,1.43,1.46.69.18,1.52.95,2.54,2.35,1.55,2.14,4.53,4.71,6.71,5.81,2.81,1.42,2.97,1.93.96,3.14-4.42,2.67-6.38,2.4-11.3-1.55-1.92-1.55-3.99-3-4.6-3.22-.86-.31-1.19-.72-1.51-1.83-.23-.79-.49-1.71-.59-2.05-.13-.46.03-.61.66-.61,1.11,0,1.36-.3.93-1.1-.8-1.49.44-.56,1.46,1.1,1.22,1.98,1.61,2.11,2.75.89.78-.84.79-.91.27-2.54-.92-2.88-1.04-3.28-.74-3.23h0ZM610.88,415.28c2.45,0,5.43.3,8.74.94,3.92.75,11.06.71,17.81-.1,2.85-.34,2.99-.32,5.08.65,2.76,1.29,9.95,7.99,9.28,8.64-.94.9-23.04-2.76-32.87-5.44-3.46-.95-4.8-1.13-9.56-1.28-5.3-.18-5.53-.21-5.43-.89.25-1.64,2.87-2.51,6.95-2.52h0ZM692.04,415.31c.82.03,1.7.22,2.62.6,2.92,1.22,4.7,4.89,3.76,7.74-1.29,3.92-4.83,8.53-7.65,9.97-2.17,1.1-1.77.36.99-1.87,2.72-2.2,3.45-3.32,3.74-5.74.5-4.28-3.09-8.42-5.54-6.38l-.82.69,1.66,1.55c1.6,1.49,1.66,1.62,1.66,3.51,0,1.99-.27,2.38-1.04,1.46-.23-.28-1.13-.85-2-1.27-6.22-3.01-3.14-10.49,2.62-10.26h0ZM639.46,416.95c-.87-.02-1.73.08-2.25.33-1.82.88-.21,2.56,2.19,2.29,1.45-.16,2.97-1.03,2.97-1.68,0-.53-1.47-.89-2.91-.93ZM706.14,420.77c.34-.03.65.86.74,2.68.18,3.43,2.01,2.89,2.03-.6v-1.18s1.38,1.53,1.38,1.53l1.37,1.53-.76.83c-2.64,2.91-11.45,3.46-9.99.63,1.1-2.12,2.41-2.64,2.41-.96,0,2.77,1.63,1.38,1.94-1.67.19-1.84.55-2.78.89-2.8h0ZM676.63,422.55c.72-.02,1.49.17,2.34.57,2.36,1.09,3.15,2.23,3.14,4.53-.01,2.28-1.25,5.47-2.36,6.06-.78.42-.78.27.11-2.87.96-3.41-.51-5.94-3.45-5.94s-3.27,1.41-.74,2.46c1.66.69,1.87,3.38.32,4.2-.59.32-.89.17-1.95-.95-2.46-2.62-2.48-2.67-1.33-4.89,1.08-2.09,2.35-3.13,3.92-3.17h0ZM630.37,426c.67-.05,2.78.18,6.27.64,2.86.38,7.81.93,10.99,1.23,3.18.3,6.17.71,6.65.92l.87.37-1.03.88c-1.58,1.36-5.11,1.03-15.01-1.42-7.02-1.73-9.87-2.56-8.75-2.64ZM742.74,427.21c.36.06.33.53.09,1.63-2.55,11.41-22.26,14.16-29.65,4.13-1-1.35-.78-2.65.23-1.4l.64.79.76-.81c.94-1.01,1.09-.87,1.35,1.36.23,1.97.38,2.15,2.3,2.8,1.57.53,2.07.3,1.94-.9-.15-1.38.68-1.35,1.52.06.82,1.39,1.47,1.46,1.66.19.11-.76.21-.71,1.48.73,1.53,1.74,2.51,1.47,1.53-.43-.34-.66-.38-1.04-.13-1.19.45-.28.43-.29,1.18,1.17.82,1.62,1.8,1.39,1.7-.39l-.08-1.3,1.01.74c1.1.81,1.77.66,1.77-.42,0-.48.31-.75,1.05-.9,1.17-.23,1.3-.53.52-1.17-.29-.24-.52-.61-.52-.81,0-.25.14-.23.42.04.82.82,1.95.45,3.32-1.11.87-.99,1.77-1.62,2.54-1.79.65-.14,1.67-.46,2.27-.71.54-.23.9-.35,1.12-.31h0ZM690.57,428.79c.12,0,.13.16.13.49s-.32.52-.79.51c-.77-.01-.77-.03-.11-.53.42-.32.65-.48.76-.48h0ZM708.29,430.86c.15,0,.27.21.27.46,0,1.29,1.01,1.86,1.75.99.39-.46.7-.65.7-.42,0,1.12-3.74,3.05-4.49,2.31-.25-.25,1.38-3.33,1.76-3.33h0ZM687.66,430.9c.21.02.08.27-.36.74-1.03,1.12-1.27,2.18-.63,2.71.29.24.53.56.53.71,0,.33-5.59,1.87-5.85,1.62-.43-.43,3.22-4.54,4.59-5.16.95-.43,1.51-.64,1.72-.62h0ZM795.89,430.95c.49.03,1.24.4,2.89,1.14,4.46,2,4.28,1.86,4.54,3.63.3,2.07,1.5,4.44,3.28,6.5.78.9,1.41,1.79,1.41,1.98,0,.84-1.12,2.41-1.72,2.41-.91,0-5.45-4.3-6.99-6.63-1.65-2.5-2.96-2.76-3.13-.62-.17,2,1.17,3.96,4.44,6.49,9.2,7.12,8.39,12.68-2.1,14.44-7.49,1.26-8.7,2.43-8.71,8.47,0,2.53-.25,2.81-1.63,1.85-.4-.28-1.58-.84-2.62-1.25-9.04-3.54-4.99-15.25,4.93-14.23,1.06.11,2.98.31,4.27.44,3.8.39,5.64-1.1,6.06-4.94l.23-2.11-4.44-4.37-4.44-4.37.19-2.16c.23-2.56.97-4.48,2.23-5.8.57-.59.79-.9,1.27-.87h0ZM701.03,431.58l.12.78c.07.43.3.88.51,1.02.45.28,1.5-.21,2.61-1.22,1.07-.97.99-.47-.16,1.04-1.18,1.55-5.01,1.67-6.48.2-.9-.9-.57-1.49.46-.84.6.37.88.33,1.82-.26l1.11-.71ZM661.51,432.64c.06.01.14.04.24.07.32.12,3.06.4,6.1.62,5.41.39,7.07.76,7.36,1.64.45,1.4-12.88-.61-13.79-2.08-.13-.2-.09-.29.09-.25h0ZM806.3,435.45c.57.02,1.52.37,2.89,1.02,1.92.9,2.12,1.33,1.26,2.74-1.13,1.86-2.77,1.44-4.02-1.04-.96-1.9-1.07-2.76-.13-2.73h0ZM693.99,435.52c.33.03.66.18.97.47,1.1,1,.13,4.24-2.13,7.09-1.45,1.82-2,3.11-1.53,3.58.97.97,4.4-3.05,5.74-6.71.93-2.55,1.34-2.94,2.35-2.23,1.01.71.96,1.37-.29,3.47-1.01,1.7-1.39,3.68-.72,3.68.57,0,2.03-2.19,2.77-4.16,2.05-5.42,3.33-3.39,1.6,2.55-.95,3.27-.81,4.28.47,3.49.91-.56,1.41-1.83,2.14-5.37.36-1.76.76-3.3.88-3.42.54-.54.67.44.29,2.19-.23,1.05-.6,2.75-.83,3.77-.45,2.03-.2,3.75.55,3.75.9,0,1.3-.99,1.6-3.95.36-3.46.84-5.43,1.56-6.39.8-1.05.71,1.8-.21,7.06-.81,4.65-.74,5.65.36,5.06.77-.41,1.19-2.01,1.98-7.37,1.05-7.2,1.82-5.34,1.21,2.97-.24,3.35-.35,6.33-.23,6.63.62,1.61,1.97-.48,1.98-3.04,0-.96.46-1.28.88-.61.72,1.17,1.91-1.12,1.95-3.75.01-.92.13-1.95.26-2.28.13-.33.24,2.3.24,5.85,0,4.46.13,6.57.41,6.86.48.48.64-.46,1.17-7.02.47-5.73.88-5.96,1.16-.64.25,4.73.71,6.93,1.43,6.93.77,0,.89-.84.95-6.42l.05-5.31.25,3.85c.29,4.37.49,5.08,1.43,5.08.61,0,.66-.31.66-3.87,0-4.06.31-5.23,1.36-5.23s1.49,1.62,1.8,5.95c.38,5.33,1.08,6.82,1.83,3.92.43-1.66.78-1.38,1.81,1.46.52,1.42,1.66,3.81,2.54,5.32,2.21,3.77,1.43,4.65-4.12,4.7-3.37.03-5.27-.55-8.57-2.61l-2.64-1.64-2.46.91c-6.18,2.29-11.58-.75-15.69-8.82-1.12-2.2-1.73-2.36-6.78-1.87-4.4.43-6.51.26-17.84-1.39l-2.7-.39.51-.99c.62-1.2,1.01-1.46,2.58-1.72,1.02-.17,1.39-.5,2.33-2.1,1.18-2.02,2.35-3.17,3.2-3.17.39,0,.28.4-.47,1.66-2.5,4.23-2.74,5.45-.87,4.49,1.01-.52,2.39-2.4,3.15-4.28.59-1.47,1.61-2.38,3.66-3.25,3.05-1.31,3.12-.74.32,2.58-2.61,3.09-3.29,4.14-2.92,4.51,1.24,1.24,6.68-4.9,6.68-7.55,0-1.43.91-2.36,1.89-2.25h0ZM817.58,449.7c1.5.01,4.72.64,6.55,1.39,1.44.59,4.28,1.86,6.3,2.84,2.02.98,4.98,2.13,6.56,2.57,4.03,1.12,3.62,1.4-1.83,1.27-4.58-.11-4.74-.14-5.32-.99-1.88-2.73-4.12-3.85-7.73-3.85-3.82,0-5.34-.86-5.34-3.01,0-.15.31-.21.81-.21h0ZM812.4,449.83c.68-.06,1.15.22,1.76.87,4.7,5.08.74,12.13-8.25,14.68-5.52,1.56-9.42,4.25-10.73,7.4-.62,1.48-1.01,1.25-1.69-1.03-1.6-5.4.05-8.04,5.45-8.69,6.82-.82,9.27-2.21,10.76-6.1.91-2.38.97-3.59.2-4.44-.75-.83-.4-1.62,1-2.23.62-.27,1.1-.43,1.5-.47h0ZM679.15,451.52c.65,0,.75.09.42.42-.33.33-.51.33-.84,0-.33-.33-.23-.42.42-.42ZM683.02,451.87c.18,0,.33.31.33.7,0,.74-.51.94-.88.35-.26-.41.08-1.05.55-1.05ZM687,453.3c.5.02.9.11.9.28,0,.4-.88.74-1.96.74-.89,0-1.15-.52-.41-.82.38-.15.97-.21,1.46-.2h0ZM692.59,453.38c.43.03.72.17.68.41-.1.58-2.19,1.04-2.64.59-.29-.29-.17-.48.45-.74.51-.21,1.08-.29,1.51-.26h0ZM696.33,453.62c.18,0,.33.3.33.68,0,.69-.59,1.3-.93.96-.27-.27.23-1.64.61-1.64ZM699.02,454.36c.2-.07.4.08.57.52.29.76-.37,3.1-1.03,3.65-.71.59-1.01.22-.54-.65.21-.39.38-1.1.38-1.58,0-1.07.29-1.82.62-1.94ZM822.7,455.78c.53-.03,1.34.24,2.47.77.66.3.92.76,1.06,1.8.1.77.83,2.58,1.62,4.02.96,1.75,1.57,3.44,1.85,5.07,1.38,8.18,2.79,12.31,5.23,15.38,1.79,2.25.9,3.16-1.61,1.63-2.15-1.31-2.92-3.28-3.95-10.08-1.15-7.61-2.61-11.15-4.33-10.49-.83.32-.73,1.01.52,3.67.8,1.7,1.28,3.55,1.76,6.73.96,6.37,2.34,10.59,3.61,11.08.7.27.96,1.19.5,1.75-1.14,1.38-5.96-.17-8.66-2.78-4.21-4.08-4.66-9.6-1.26-15.73.74-1.34,1.06-7.37.53-10.05-.37-1.86-.24-2.72.64-2.77ZM818.67,457.16c.54-.05.87,1.3.88,3.92.02,3.64-1.02,4.53-3.99,3.4-1.15-.44-1.13-.77.18-2.67.59-.86,1.37-2.23,1.73-3.05.46-1.05.87-1.57,1.19-1.6h0ZM701.45,458.22c.34-.02.61.42.54,1.04-.05.46-.16,1.47-.24,2.24-.14,1.41-.53,1.62-1.5.8-.59-.49-.55-1.15.09-1.68.29-.24.52-.79.52-1.21s.11-.88.24-1.02c.12-.12.24-.17.35-.18h0ZM704.57,460.41c.07,0,.14.03.21.07.17.1.26.99.21,1.96-.11,2.14.5,2.58,1.39,1.01.81-1.43,1.33-1.17,1.22.6-.12,1.84.36,2.1,1.75.93,1.37-1.15,1.6-.69.62,1.25-.66,1.3-.85,1.43-1.68,1.23-2.02-.5-5.88-3.22-5.05-3.56.24-.1.44-.77.44-1.48,0-1.15.43-2.03.91-2h0ZM739.42,463.83c.11,0,.24.03.4.06.43.11,2.25.38,4.03.61,3.7.47,3.64.4,2.05,2.49-3.46,4.53-11.98,7.3-16.49,5.37-.77-.33-2.11-.82-2.98-1.1-.87-.27-2.15-1.01-2.85-1.63l-1.27-1.13.64-1.4.64-1.4.35.92c.67,1.76,2.62,2.6,3.03,1.31.23-.73.24-.72,1.16.13,2,1.86,3.77,1.79,2.58-.11-.81-1.29,1.22-.85,2.35.51.63.76,1.77.7,1.77-.08,0-.35-.19-.82-.41-1.04-.97-.97.2-.8,1.9.28,3.34,2.11,3.76,2.26,4.38,1.63.43-.43.46-.66.14-1.05-.32-.39-.3-.59.12-.94.92-.76.63-1.7-.7-2.26-1.19-.5-1.6-1.23-.84-1.19h0ZM714.59,464.18c.2-.01.29.18.32.56.08,1.03.18,1.99.24,2.45.12.88,1.14.4,1.71-.8.52-1.08.71-1.21,1.55-1.03.76.17,1.05.04,1.4-.6.44-.79.45-.78.87.59.88,2.87.36,3.24-4.99,3.57-5.5.34-5.82.07-3.26-2.8,1.17-1.31,1.81-1.92,2.15-1.94h0ZM918.88,465.22c.32.03.57.14.68.31.12.2-.06,1.18-.4,2.19-1.81,5.33-.78,9.68,4.16,17.55,5.96,9.49,6.78,24.2,1.63,29.13-1.42,1.36-1.48,1.04-.42-2.14,2.38-7.16.48-15.53-5.93-26.2-.93-1.56-1.79-3.23-1.89-3.72-.61-2.82-1.92-4.18-2.85-2.94-.96,1.28-.23,3.49,3.71,11.33,5.25,10.44,6.08,15.28,3.61,21.19-1.37,3.28-2.71,5.05-2.25,2.98.64-2.9.29-15.12-.49-16.99-3.05-7.31-4.99-9.91-11.66-15.63l-2.27-1.95.43-2.06c1.27-6.05,4.83-10.52,9.51-11.92,1.65-.5,3.17-.96,3.36-1.02.37-.12.76-.16,1.08-.12ZM650.48,466.25c.2-.02.3.14.3.47,0,1.09-.46,1.6-1.42,1.6-1.44,0-4.53-.71-4.53-1.04,0-.57,1.12-.69,2.64-.28,1.36.36,1.64.34,2.16-.18.36-.36.65-.56.85-.57ZM655.31,467c.27-.03.24.17.14.56-.31,1.19.72,1.6,2.5,1,1.77-.6,1.93-.47.82.71-.94,1-1.49,1.01-4.63.06l-2.49-.75,1.75-.8c1.08-.49,1.64-.74,1.91-.77ZM814.2,467.21c1.14,0,2.14.1,2.86.3,1.76.47-3.59,14.69-6.86,18.21-.44.47-1.03,1.32-1.33,1.89-2.51,4.86-15.47,17.6-20.25,19.92-2.57,1.24-2.66.67-.21-1.2,1.24-.94,3.46-2.78,4.94-4.07,1.48-1.29,3.09-2.61,3.58-2.94,2.67-1.75,6.09-7.5,7.98-13.41.78-2.44,1.74-5.06,2.13-5.83,1.41-2.77,1.52-4.39.29-4.39-1.5,0-2.88,2.65-5.26,10.07-2.26,7.04-2.67,7.27-2.92,1.63-.16-3.63-.38-5.03-1.1-7.06-1.96-5.51-.44-8.58,5.62-11.34,2.38-1.08,7.09-1.81,10.52-1.78h0ZM683.97,467.63c.05,0-.25.6-.67,1.33-1.52,2.64.05,3.43,1.88.95,1.17-1.59,1.94-2.09,1.51-.98-.59,1.51-.66,5.44-.1,5.84.3.22.79,1,1.1,1.73.73,1.74,1.7,1.63,2-.22.27-1.66.55-1.93,1.26-1.22.49.49.51.78.14,2.1-.23.84-.38,2.15-.31,2.91.16,1.98,1.02,1.82,1.61-.29.67-2.37,1.26-1.77.96.98-.25,2.34.26,3.39,1.02,2.11,1.37-2.31,2.55-2.59,1.48-.35-1.13,2.37-.12,3.1,1.93,1.38,1.79-1.5,1.92-.96.19.8-3.02,3.06-.88,3.51,2.67.55,1.66-1.38,2.26-.85.94.83-.93,1.18-.92,1.23.69,2.28l1.39.91,2.38-1.54c2.53-1.64,3.37-1.96,2.43-.91-1.7,1.87-.27,2.3,1.97.59,1.77-1.35,2.59-1.59,2.14-.61-.62,1.35-.37,4.11.37,4.11.52,0,.8-.4,1.16-1.66.26-.91.64-1.66.84-1.66.21,0,.26.26.11.61-1.14,2.75-.18,5.46,1.26,3.55.87-1.16,1.31-.61,1.74,2.16.41,2.67,1.3,4.88,1.97,4.88.76,0,.91-.87.49-2.84-.46-2.13-.28-2.48.74-1.45.49.49.84,1.44,1.02,2.74.33,2.44.95,4.01,1.57,4.01.8,0,1.21-1.2.84-2.48-.42-1.48.15-2.24.91-1.22.28.37.5.97.5,1.33,0,1,1,2.72,1.58,2.72.39,0,.52-.46.52-1.93,0-2.4.38-2.43,1.64-.11,1.14,2.09,2.7,3.44,3.29,2.85.27-.27.16-.76-.41-1.76-1.47-2.55-.4-3.3,1.69-1.2,3.14,3.17,5.31,3.08,2.72-.11-2.01-2.47-1.79-2.8.88-1.33,3.2,1.77,4.62.89,1.91-1.18-1.92-1.46-1.08-1.77,2.43-.89,3.65.91,3.71.92,3.71.06,0-.72-1.55-1.74-2.7-1.79-1.11-.04.61-.62,1.93-.65.64-.01,2.34-.52,3.78-1.11,3.2-1.33,3.26-1.28,1.86,1.49-4.32,8.57-9.35,11.57-18.48,11.04-8.2-.48-13.51-3.58-19.89-11.62l-2.4-3.03-2.67.24c-4.46.39-8.09-.71-11.53-3.48-8.11-6.55-9.95-8.51-12.1-12.91-1.14-2.32-1.8-2.64-3.76-1.82-4.14,1.73-14.8,1.11-18.44-1.06q-.87-.52.35-.32c.82.14,1.75-.02,2.8-.47,3.07-1.31,3.52-1.31,3.41,0-.12,1.58.88,1.67,3.32.29,2.26-1.27,3.7-1.5,2.24-.35-.51.4-.92.96-.92,1.24,0,1.45,2.62.62,5.01-1.59,1.88-1.73,2.34-1.84,1.14-.26-2.12,2.78-.16,2.7,2.73-.11,1.18-1.15,2.2-2.1,2.25-2.1h0ZM640.22,470.75c.99,0,2.44.12,4.52.36,4.22.48,4.46,1.12,1.21,3.19-3.16,2-7.79.66-7.79-2.25,0-.89.4-1.28,2.05-1.3ZM688.1,471.6c.3.08.51.68.33,1.25-.13.4-.38.74-.56.74-.38,0-.45-1.51-.09-1.87.11-.11.22-.14.31-.11h0ZM779.03,471.65c1.62,0,3.36.24,5.16.75,12.99,3.65,16.37,18.16,6.52,27.98-4.82,4.8-9.05,6.47-19.81,7.85-2.99.38-6.69.88-8.23,1.11l-2.81.42-2.62-1.29c-2.5-1.23-5.32-1.93-10.32-2.59l-2.1-.27,1.66-.97c1.56-.92,1.72-.94,2.67-.45,4.07,2.11,5.57,2.42,11.62,2.45l5.79.03,2.68-1.32c3.72-1.84,7.93-5.82,9.39-8.88,1.62-3.4,1.45-3.75-1.94-4.06-7.28-.66-10.35-10.21-5.59-17.4,1.44-2.18,4.38-3.36,7.94-3.36h0ZM652.96,472.53c.25,0,2.19.46,4.31,1.02,2.12.56,4.41,1.24,5.08,1.52l1.22.5-2.88,1.46c-3.44,1.74-3.1,1.71-5.07.4-2.6-1.73-4.33-4.91-2.66-4.9h0ZM635.56,472.74c.19-.04.29.21.51.56.29.44,1.35,1.71,2.36,2.81,3.28,3.59.95,6.64-4.22,5.53-3.56-.76-3.76-1.66-1.21-5.45,1.7-2.53,2.24-3.39,2.55-3.45ZM649.54,474.69c.58-.02,1.22.56,2.25,1.88.84,1.07,2.14,2.35,2.89,2.86,1.63,1.08,1.59,1.35-.34,2.72-3.06,2.16-8.46,1.14-10.02-1.89-.71-1.37-.49-1.77,1.67-3.07,1.01-.6,2.14-1.43,2.5-1.83.38-.42.71-.65,1.06-.67h0ZM680.15,475.38c.33.02.59.19.92.52,2.35,2.35-6.88,5.53-10.37,3.56-3.6-2.02-3.04-2.66,2.73-3.05,2.47-.17,4.88-.47,5.36-.67.62-.26,1.02-.38,1.36-.36ZM665.77,477.12c.32.03.53.22.66.57.12.34.83,1.38,1.56,2.32,1.85,2.35,1.35,3.37-1.64,3.37-2.66,0-6.79-2.72-5.37-3.53.26-.15,1.26-.84,2.23-1.52,1.21-.86,2.03-1.26,2.56-1.21ZM891.7,478.26c.34.08.93.59,2.22,1.63,1.46,1.19,2.8,1.93,4.1,2.28,1.06.29,2.76.76,3.77,1.06,5.34,1.56,12.41,10.28,14.29,17.65.75,2.95.56,11.76-.29,13.66l-.55,1.23-.03-2.8c-.07-6.19-1.37-11.85-3.43-14.91-2.16-3.21-2.91-3.9-6.57-6.07-1.93-1.14-4.22-2.52-5.11-3.06-1.84-1.14-2.95-1.26-3.43-.38-.74,1.38.7,2.73,5.49,5.13,6.88,3.45,10.93,11.65,10.1,20.42-.35,3.7-1.21,3.04-1.25-.96-.06-5.81-4.73-12.67-11.88-17.48-5.62-3.77-6.69-5.01-7.89-9.19-.66-2.28-.74-5.65-.18-7.25.24-.69.32-1.05.66-.97h0ZM683.01,479.36l3.76,3.85,3.76,3.85-1.22.12c-4.47.43-6.31-1.05-6.31-5.08v-2.74ZM782.07,480.02c-.55.01-1.13.08-1.72.19-2.33.46-3.85,1.8-3.85,3.41,0,1.49,1.24,1.68,3.05.48,5.11-3.38,9.98,2.2,7.94,9.11-.5,1.7-1.02,2.35-4.9,6.16-2.39,2.34-4.34,4.51-4.34,4.83,0,2.39,6.03-1.21,9.57-5.71,6.33-8.05,2.58-18.7-5.74-18.47h0ZM816.86,481c.12-.03.23.12.4.42.21.35.97,1.57,1.69,2.7.72,1.13,1.47,2.06,1.66,2.06.45,0,.47.94.03,1.21-.18.11-1.25.36-2.36.56s-3.01.7-4.2,1.12c-3.2,1.12-3.31,1.48,2.27-7.44.25-.41.39-.61.52-.64h0ZM679.13,481.35c.6-.03.98.54,1.28,1.86.22.96.57,2.17.78,2.68,1.17,2.93-6.29,2.55-7.95-.41-1.19-2.11-1.06-2.3,1.97-2.99,1.49-.34,2.95-.75,3.24-.91.26-.14.48-.22.68-.23h0ZM658.81,482.07c.53-.03.94.27,1.54.9,2.06,2.15,5.84,3.28,8.47,2.54,1.53-.43,2.07-.06,3.37,2.34,1.03,1.9,1.98,2.25,6.16,2.3l3.77.05.09,1.05c.05.58.44,1.73.88,2.55.67,1.29.71,1.55.27,1.82-.44.27-.4.58.3,2.17,1.4,3.17,1.62,4.26,1.1,5.51-.91,2.21-4.91,3.89-4.91,2.06,0-.42-.49-1.63-1.1-2.7-.84-1.48-1.19-2.69-1.49-5.11l-.39-3.16h-1.05c-1.24,0-1.47.68-1.54,4.62-.05,3.17-.3,3.79-2.81,7.13-2.96,3.93-3.35,5.32-3.35,11.75v5.29l1.64,3.3c7.3,14.65,31.85,29,60.48,35.36.89.2,4.14,1.37,7.22,2.6,3.08,1.23,7.81,3.02,10.51,3.97,2.7.96,6.01,2.21,7.35,2.79,1.35.58,3.1,1.23,3.9,1.44,4.42,1.18,11.23,7.35,13.98,12.67,1.23,2.37,1.19,2.37-8-1.82-4.27-1.94-11-4.84-14.95-6.43-3.95-1.59-8.05-3.33-9.11-3.87-1.72-.87-12.29-4.42-24.51-8.23-2.41-.75-5.8-1.87-7.53-2.48-1.73-.61-4.02-1.42-5.08-1.79-1.06-.37-2.59-.98-3.41-1.36-.82-.37-1.56-.68-1.66-.68-1.07,0-12.46-5.9-19.44-10.07-7.42-4.43-18.5-15.42-21.45-21.27-5.37-10.63-5.03-15.77,1.53-23.11,5.05-5.66,6.61-8.92,6.73-14.08.09-3.92-1.72-4.55-3.42-1.2-1.87,3.69-7.68,3.68-10.36-.02-1.6-2.21-1.43-3.25.63-3.94.92-.31,2.46-1.1,3.41-1.76,1.07-.74,1.71-1.12,2.24-1.15h0ZM641.86,482.1c.5,0,.85.37,1.56,1.1.65.67,1.86,1.48,2.7,1.8,1.76.67,1.69.51.85,2.16-1.87,3.66-5.71,4.12-8.67,1.04-2.15-2.24-2.81-3.77-1.61-3.78.34,0,1.56-.54,2.71-1.2,1.31-.75,1.96-1.12,2.46-1.13h0ZM629.32,482.12c.38-.06.82.23,1.51.69,2.92,1.99,2.52,3.76-1.25,5.53-3.68,1.72-4.24,1.2-2.59-2.43,1.21-2.67,1.7-3.7,2.34-3.79ZM868.2,483.59c1.16.03,2.67.12,5.17.31,7.5.55,13.13,3.85,20.02,11.71,8.91,10.18,4.37,30.76-9.19,41.67-8.17,6.58-14.87,10.49-21.31,12.46-5.35,1.63-5.77.88-.54-.97,10.57-3.74,22.04-14.05,26.59-23.9,3.33-7.2,4.67-17.37,2.98-22.47-1.72-5.19-9.33-10.19-15.98-10.51l-3.69-.18-2.89,1.46c-3.67,1.84-3.75,2.09-1.51,4.36l1.8,1.82v2.54c0,4.74-1.2,6.1-5.41,6.1-12.89,0-12.08-23.05.86-24.26,1.12-.1,1.94-.15,3.1-.12h0ZM873.62,485.95c-1.25-.03-2.52.05-3.76.26-4.19.7-9.66,4.93-10.22,7.9-.53,2.83.79,8.68,1.91,8.47.84-.16.9-1.5.22-4.5-.73-3.19-.26-4.52,2.45-6.9,4.81-4.24,11.84-3.89,20.05.99,2.14,1.27,2.85,1.12,1.94-.43-1.96-3.38-7.15-5.65-12.58-5.78h0ZM634.31,487.7c.55-.03,1.28.65,3.13,2.42q3.13,2.99,1.92,4.44c-3.52,4.18-8.13,3.98-10.27-.43-1.08-2.22-.97-2.52,1.34-3.75,1.14-.61,2.43-1.48,2.86-1.95.41-.44.68-.71,1.01-.73ZM649.48,488.81c.36.02.6.46,1.13,1.22.53.77,2.01,2.05,3.29,2.86,3.17,1.99,3.7,3.23,2.06,4.77-2.78,2.6-8.19,1.95-10.68-1.29-1.66-2.15-1.52-2.65,1.4-5.35,1.7-1.57,2.35-2.23,2.81-2.21ZM686.88,489.67c1.93.05,4.44.44,4.78.94.25.36,1.01,1.42,1.7,2.35,1.57,2.15,1.43,2.26-1.5,1.14-2.87-1.1-3.12-1.11-3.6-.21-.21.39-.67.7-1.03.7-1.34,0-3.32-3.46-2.62-4.59.17-.27,1.12-.36,2.28-.33ZM694.33,490.09c.18-.06.6.19,1.54.8.72.47,2.45,1.19,3.85,1.61,2.7.81,3.3,1.21,2.26,1.54-2.14.68-7.77-1.89-7.77-3.54,0-.24.02-.38.13-.41h0ZM822.65,490.54c2.74-.07,5.55.36,8.41,1.29,8.41,2.74,12.01,6.1,13.55,12.64,2.49,10.58-3.67,20.48-15.08,24.22-3.47,1.13-6.75.54-3.8-.69,11.3-4.71,13.77-16.65,5.41-26.17-4.06-4.62-15.43-3.7-18.21,1.48-1.33,2.49,1.26,3.17,3.48.91,2-2.04,3.33-2.64,5.86-2.64,9.97,0,14.59,16.15,6.15,21.48-5.77,3.64-8.71,4.23-28.45,5.67-8.16.6-11.14.98-13.81,1.76-3.38.99-4.93.36-6.25-2.55-.5-1.09-.87-.96,6.76-2.26,6.8-1.16,6.86-1.16,18.73-1.16h11.91l2.01-.98c2.49-1.22,3.27-2.19,3.79-4.72.44-2.12.22-6.31-.39-7.45-1.01-1.89-3.14-1.15-3.14,1.09,0,3.17-10.21,2.65-12.55-.64-4.17-5.85-1.54-14.84,5.43-18.55,3.26-1.74,6.67-2.65,10.19-2.74h0ZM662.22,493.26c.38.03.47.27.47.82,0,1.47-.96,3.38-1.63,3.25-1.34-.26-1.23-3.55.12-3.9.48-.12.81-.19,1.04-.17h0ZM708.11,494.03c.98,0,1.82.84,3.88,3.04,4.38,4.65,4.49,4.81,3.82,5.48-.63.63-.19.86-4.66-2.52-1.52-1.15-3.73-2.58-4.92-3.18l-2.16-1.09,1.81-.91c1-.5,1.64-.81,2.23-.81h0ZM873.02,494.53c.6.02,1.36.16,2.28.42,2.19.61,4.85,4.16,4.85,6.46s-5.49,9.29-7.29,9.29c-.34,0-.92.21-1.3.47-.38.26-2.16,1.07-3.96,1.81-3.52,1.45-5.45,2.89-5.1,3.81.31.81.92.7,3.58-.63,1.3-.66,3.37-1.6,4.6-2.1,9.33-3.79,14.04-11.62,10.35-17.25-.96-1.46-.34-1.34,1.87.36,2.46,1.89,2.86,2.81,2.85,6.49-.02,6.29-5.47,11.46-14.45,13.69-4.03,1-8.81,3.61-10.13,5.53-2.78,4.05-4.6-3.59-2.08-8.74,1.29-2.64,1.44-2.74,4.22-2.74,7.87,0,11.26-5.41,8.41-13.47-.85-2.39-.5-3.46,1.29-3.4h0ZM626.44,494.61l.52.76c.29.42,1.29,1.53,2.22,2.48l1.7,1.72-1.14,1.18c-2.18,2.25-4.43,2.73-6.02,1.3-1.35-1.22-.33-5.15,1.74-6.7l.97-.73ZM641.46,496.01l1.77,1.83c.97,1.01,2.24,2.16,2.81,2.56l1.04.73-1.75,1.75c-3.13,3.13-6.24,3.2-9.14.22-1.98-2.03-1.87-2.42,1.11-4.05,1.35-.73,2.83-1.72,3.31-2.18l.86-.85ZM687.02,497.03c1.6.05,4.99.47,6.49.88,1.06.29,3.9.69,6.3.88,6.57.54,11.11,3.03,13.67,7.49,1.58,2.75,1.45,3.29-.64,2.69-.63-.18-2.68-.5-4.55-.72-4.16-.48-8.33-1.23-11.05-1.99-1.89-.53-2.08-.53-2.62.01-1.4,1.4,2.07,3.13,8.86,4.4,6.29,1.18,5.54,2.09-1.36,1.64-6.76-.44-8.42,1.49-2.22,2.58,3.44.61,15.71,1.14,16.15.7.63-.64-1.14-1.9-3.39-2.41-2.78-.62-3.04-1.27-.4-.99,3.21.33,6.78,2.27,8.92,4.84,1.91,2.29,2.32,3.71.96,3.31-1.55-.46-9.95-1.91-13.22-2.29-1.83-.21-4.65-.7-6.26-1.08-3.21-.76-3.89-.59-3.89.93,0,1.65,3.36,2.59,12.35,3.46,6.7.65,8.74,1.11,12.34,2.77,2.35,1.09,5.78,3.73,5.78,4.46,0,.65-11.62-.45-21.25-2.01-3.83-.62-4.66-.53-4.66.5,0,1.36,2.78,2.12,12.96,3.55,13.1,1.84,16.68,3.12,20.09,7.21,1.7,2.04,1.72,2.03-2.62,1.41-2-.29-6.64-.69-10.3-.9-6.82-.39-8.77-.67-10.93-1.57-2.41-1.01-3.59-.5-3.12,1.35.51,2.02,5.93,3.08,18.26,3.56,10.58.42,16.78,3.24,20.62,9.4,2.4,3.85,2.21,4.01-2.93,2.48-3.21-.96-14.83-3.04-20.43-3.66-4.2-.47-5.49-.26-5.49.89,0,1.28,2.01,1.81,11.38,2.99,16.67,2.1,24.85,5.06,30.07,10.86,1.6,1.78,4.05,6.08,3.67,6.46-.12.12-4.92-1.58-10.67-3.78-5.75-2.19-11.52-4.36-12.82-4.81-4.13-1.43-2.67-1.82,3.14-.83,3.58.61,5.16.36,4.94-.8-.21-1.07-2.5-1.83-7.82-2.59-5.38-.78-6.62-1.06-14.17-3.27-5.4-1.58-8.06-1.92-8.73-1.12-.65.78-2.57.69-5.11-.24l-2.1-.77-.36-3.23c-.4-3.55-1.3-4.99-3.89-6.22-1.21-.57-1.23-.74-.24-2.63,1.69-3.26-.41-7.54-4.1-8.37-2.91-.65-3.93-2.32-2.45-4.01.58-.66,1.05-1.3,1.05-1.43s.22-.76.49-1.4l.49-1.17,1.68.31c2.81.53,15.52,1.7,16.08,1.49.29-.11.52-.63.52-1.16,0-1.44-1.14-1.76-8.28-2.32-3.51-.27-6.79-.66-7.3-.85-.51-.19-1.66-.36-2.56-.36-2.6-.02-5.4-1.85-5.72-3.74-.34-1.98-1.38-3.89-3.06-5.63-.96-.99-1.43-1.79-1.44-2.44-.01-1.47-1.15-3.65-2.53-4.86-1.5-1.32-2.01-2.21-2.02-3.52,0-.54-.32-1.67-.7-2.51s-.69-1.61-.69-1.71c0-.08.33-.11.87-.1h0ZM691.34,498.82c-.37,0-.67.11-.97.3-2.4,1.52,2.63,3.77,10.68,4.78,5.39.68,6.12.59,6.12-.72s-.75-1.52-6.18-2.15c-3.31-.38-5.48-.83-6.85-1.41-1.35-.57-2.17-.82-2.79-.81h0ZM658.49,498.85c.26.01.43.15.62.38.68.82-4.6,6.57-6.04,6.57-1.02,0-1.65-.48-2.31-1.78-1.25-2.45-.72-3.12,2.46-3.12.53,0,1.81-.46,2.85-1.03,1.34-.73,1.99-1.04,2.42-1.01h0ZM900.45,500.37l2.24,2.32c1.31,1.36,2.7,3.25,3.34,4.55,1.83,3.72,2.47,11.25,1,11.64-1.86.5-1.84.54-1.84-4.24s-.7-7.79-1.77-7.79c-.39,0-.47.95-.41,4.99.08,5.21-.72,8.2-2.8,10.5-.89.98-1.62.8-1.36-.35,1.89-8.17,2.64-16.23,1.86-20.22l-.27-1.4ZM802.38,500.63c.28-.07.3.29.17,1.05-.99,5.67-9.64,11.6-15.34,10.51-1.32-.25-.92-.58,3.34-2.69,3.82-1.89,7.08-4.28,10.08-7.36.92-.94,1.46-1.44,1.75-1.5h0ZM632.43,501.95s.52.77,1.11,1.72c.77,1.23,1.64,2.05,3.03,2.84,2.72,1.54,2.65,2.58-.28,3.97-4.46,2.12-11.92-3.45-7.66-5.72.72-.38,1.87-1.17,2.54-1.75.67-.58,1.24-1.05,1.26-1.06h0ZM647.84,504.45c.31.06.6.39.96.99.34.57,1.32,1.53,2.18,2.12.86.59,1.56,1.1,1.56,1.14,0,.04-.3.86-.66,1.82-1.64,4.38-6.01,4.4-8.62.04-1.55-2.58-1.61-2.33.88-3.73,1.16-.65,2.37-1.47,2.68-1.82.4-.44.72-.64,1.02-.57h0ZM677.2,504.6c.28.02.41.42.48,1.17.25,2.51-3.44,7.38-5.59,7.38-1.25,0,.17-3.02,3.16-6.74,1.01-1.25,1.6-1.84,1.95-1.81h0ZM717.02,505.2c.08,0,.16.02.24.04.32.1,3.5.81,7.06,1.59,9.9,2.16,13.07,3.55,14.62,6.39l.78,1.42-1.66-.22c-.91-.12-3.47-.37-5.69-.55s-5.11-.58-6.43-.89c-1.47-.35-2.97-.48-3.88-.34-1.52.23-4.01-1.17-3.51-1.97.39-.64,3.98-.33,6.32.56,3.74,1.41,6.3,1,5.16-.83-.66-1.06-5.09-2.36-10.33-3.02-1.69-.22-3.6-1.37-3.24-1.96.09-.14.31-.22.55-.2h0ZM623.67,505.8c.31,0,.49.19.42.42-.22.65-.97.76-.97.14,0-.3.25-.55.55-.55h0ZM687.11,506.16c.75.01,1.36.33,1.86.95,1.65,2.08.42,6.24-2.23,7.56-1.75.87-2.24.59-2.5-1.41-.12-.93-.45-2.32-.72-3.1-.71-2-.67-2.12.98-3.12,1-.6,1.87-.89,2.62-.88ZM889.02,506.37c.31.08.29,1.92.14,5.9-.43,11.66-5.83,19.91-18.64,28.44-1.93,1.28-4.17,2.78-4.98,3.33-1.83,1.24-5.13,2.72-6.06,2.72-1.12,0-.86-1.34.39-2.03,18.87-10.4,27.14-19.6,26.9-29.91-.06-2.79.06-3.59.85-5.64.73-1.88,1.16-2.88,1.4-2.82h0ZM626.02,508.33c.25-.03.42.33,1.05,1.41.48.82,1.2,1.79,1.61,2.15,1.42,1.29.08,3.92-1.85,3.64-1.82-.27-2.99-5.67-1.46-6.78.32-.24.5-.4.65-.42ZM801.71,508.34c.55-.05.89.54,1.37,1.84,1.2,3.21,1.05,3.9-1.11,4.9-2.29,1.07-2.28,1.07-5.39-.1s-3.11-1.14-.39-2.74c1.2-.7,2.86-1.89,3.67-2.64.86-.79,1.42-1.22,1.85-1.26h0ZM742.41,508.61c1.76.01,3.99.14,5.89.38,4.19.51,6.16,1.31,9.18,3.72,2.68,2.14,5.45,5.49,5.28,6.38-.14.73-4.79.48-12.35-.65-1.64-.25-2.22-.21-2.65.17-.3.27-.7.49-.89.49-.49,0-3.28-2.92-3.28-3.44,0-1.27,4.81-1.47,9.61-.41,6.59,1.46,7.75-.29,1.48-2.22-3.94-1.21-4.8-1.31-8.82-.96l-3.5.3-1.49-1.57c-.82-.86-1.49-1.71-1.49-1.89,0-.22,1.28-.32,3.04-.3h0ZM784.22,508.63c.27,0,.27.16-.17.5-.37.28-1,.51-1.4.51-.66,0-.64-.05.15-.49.61-.34,1.15-.51,1.42-.52h0ZM680.07,509.77c.44-.05.75.32,1.18,1.02,1.44,2.36.31,4.98-2.85,6.59-1.82.93-1.87.9-2.68-.97l-.71-1.65,2.29-2.56c1.45-1.62,2.21-2.37,2.77-2.44ZM779.25,510.41c.61-.03.77.06.55.29-.91.91-6.04,1.81-11.18,1.96-6.26.19-5.94-.32.6-.92,2.37-.22,5.41-.6,6.76-.85,1.6-.29,2.66-.45,3.28-.48h0ZM848.25,510.72c.19,0,.45.16.71.48.28.34.29.57.04.72-.49.3-1.07-.08-1.07-.71,0-.32.12-.48.31-.49h0ZM639.52,510.75c.62-.13,1.42.58,2.77,2.36,1.99,2.61,2.11,3.05,1.29,4.65-1.78,3.45-6.79,3.01-9.02-.78-1.44-2.45-1.31-2.8,1.54-4.18,1.36-.66,2.64-1.4,2.84-1.64.18-.22.37-.36.58-.4ZM780.38,513.94c1.64,0,3.3.07,4.88.26,5.25.63,12.16,3.26,14.89,5.66,1.61,1.42,1.25,1.6-3.24,1.65-3.52.04-12.64,1.18-17.61,2.19l-3.68.75-1.84-1.13c-1.01-.62-1.84-1.19-1.84-1.27,0-.72,2.78-1.29,7.82-1.62,6.49-.43,7.34-.64,7.18-1.77-.26-1.84-14.08-1.02-17.09,1.02-1.84,1.24-3.51.41-3.51-1.75s6.92-3.95,14.04-3.99h0ZM691.63,513.95c.46-.05.82.21,1.37.76,2.07,2.07.72,6.04-2.33,6.86-1.77.48-2.08.24-3.14-2.36-.79-1.94-.79-1.98-.12-2.44.37-.26,1.39-1.01,2.25-1.67.96-.72,1.52-1.1,1.97-1.15h0ZM883.89,514.69c.47-.02.47.64.47,2.14,0,1.25-.14,2.55-.32,2.89-.18.33-.57,1.32-.88,2.2-2.42,6.91-22.89,22.84-25.28,19.68-.83-1.09-.52-1.64,1.53-2.71,8.64-4.51,17.95-13.97,17.95-18.26,0-1.11,1.86-3.14,4.34-4.75,1.17-.76,1.82-1.18,2.19-1.2ZM671.05,514.97c.18,0,.45.13.9.34,2.84,1.29,3.44,9.05.71,9.05-1.09,0-2.49-5.29-2.1-7.92.16-1.08.2-1.46.49-1.47ZM851.76,515.09c.82.04,1.57.26,2.11.71,1.91,1.6,1.42,4.7-.74,4.7-1.21,0-1.28.68-.21,2.12,1.36,1.84,1.19,8.59-.25,9.79-1.44,1.2-2.62-.9-2.62-4.65,0-2.58-.67-4.14-2.67-6.28-1.01-1.08-1.52-1.91-1.39-2.25.11-.3.21-.67.21-.83,0-1.9,3.11-3.43,5.57-3.31h0ZM631.05,515.6s.54.83,1.14,1.84c.6,1.01,1.42,2.25,1.82,2.76,1.61,2.01-2.32,6.42-4.21,4.71-.96-.87-2.55-4.62-2.42-5.71.09-.73,2.98-3.57,3.67-3.59h0ZM724.66,515.62c.67,0,4.29.55,8.06,1.23,7.93,1.44,8.89,1.83,12.09,4.9,2.96,2.83,3.1,2.74-3.37,2.11-2.96-.29-7.09-.63-9.17-.76-3.7-.23-5.5-.86-5.5-1.92,0-.54,3.17-.35,5.85.34,2.73.71,3.96.43,3.5-.79-.51-1.34-2.83-2.2-8.23-3.05-1.79-.28-2.84-.65-3.5-1.23l-.94-.83h1.21ZM807.01,515.89c.56.04,1.11.17,1.62.41,1.83.83,1.89,1.54.18,2.41-3.15,1.6-7.87.95-6.36-.87,1.13-1.36,2.89-2.07,4.56-1.95h0ZM649.3,515.95c.73-.02,1.51.15,1.81.51.52.62.35,3.07-.23,3.26-.7.23-3.41-2.51-3.15-3.18.14-.37.84-.57,1.57-.58ZM819.83,515.97c.31,0,.53.17.66.49.25.65-.99,2.69-2.31,3.8-1.55,1.3-8.59,2.38-8.59,1.32,0-.77,3.62-3.09,6.13-3.93,1.25-.42,2.59-.97,2.97-1.23.45-.31.84-.46,1.15-.45ZM682.55,517.48c.41-.07.67.22,1.38.76,3.26,2.48,2.65,6.3-1.11,7.01-1.63.31-2.02.08-3.96-2.29-1.71-2.08-1.77-1.89,1.4-4.07,1.32-.91,1.88-1.34,2.29-1.42h0ZM646.38,519.43c.31.06.69.31,1.1.77.8.9,3.16,2.03,4.24,2.05,1.48.01,2.52,4.18,1.22,4.87-2.23,1.19-7.42-3.25-7.42-6.35,0-.97.34-1.43.86-1.34ZM875.03,519.65c.14.02.22.08.22.16,0,1.11-4.35,8.36-4.77,7.95-.38-.38-1.53-6-1.28-6.25.83-.83,4.84-2.03,5.83-1.86h0ZM917.08,519.81c1.4,0,2.83.13,4.5.39,4.88.75,8.13,2.27,10.95,5.09,1.59,1.59,1.53,2.11-.26,2.41-5.23.88-15.67,9.44-22.62,18.56-2.88,3.78-7.2,7.92-9.45,9.06l-1.84.93-2.01-1.03c-3.79-1.93-3.75-1.51-.51-5.85,1.56-2.1,3.95-5.79,5.31-8.21,3.77-6.72,9.01-11.83,14.04-13.66,1.68-.61,2.09-.91,2.09-1.52,0-2.23-2.05-2.1-6.59.39-5.62,3.09-7.77,5.46-12.49,13.77-1.98,3.48-3.78,5.9-6.89,9.24l-2.25,2.41-2.94-.84c-3.62-1.03-3.65-1.11-1.31-3.87,1.04-1.23,2.31-3.05,2.81-4.04,5.45-10.75,14.58-19.96,21.77-21.95,3.12-.86,5.36-1.26,7.68-1.27h0ZM749.73,521.27c.43.03,1.04.13,1.82.28.97.18,4.18.59,7.13.89,10.19,1.07,16.64,4,19.8,9.01,1.18,1.86,1.48,1.79-7.47,1.82-5.79.02-7.97.14-8.07.44-.31.91,1.53,1.49,5.87,1.86,12.74,1.08,14.6,1.42,18.8,3.41,1.88.89,7.24,5.22,7.27,5.88.03.66-6.25.95-13.55.63l-7.26-.32-1.09-1.03c-.6-.57-1.32-1.49-1.61-2.04l-.53-1.01,7.44.13c8.31.15,9.23-.1,5.87-1.58-2.99-1.32-6.45-1.74-12.24-1.49-6.17.27-6.27.22-9.68-4.32-1.23-1.64-2.7-3.46-3.26-4.04-1.75-1.83-1.02-1.96,5.55-.98,4.21.63,4.91.49,4.47-.89-.15-.48-.73-.86-1.7-1.12-.81-.22-1.78-.52-2.17-.68-1.54-.63-3.04-.8-8.56-1l-5.76-.21-.97-1.4c-1.2-1.74-1.4-2.3-.09-2.22h0ZM696.13,521.38c.77-.02,1.53.35,2.35,1.13,2.12,2.02,1.63,3.52-1.7,5.24-2.27,1.17-2.55.99-3.5-2.26-.61-2.08-.46-2.46,1.44-3.64.48-.3.94-.45,1.4-.47ZM641.82,521.91c.65.01.99.43,1.23,1.31,1.47,5.3-1.8,8.41-6.17,5.85-2.95-1.73-1.79-7.22,1.4-6.63.61.11,1.51.05,1.99-.14.66-.26,1.16-.4,1.55-.39h0ZM844.12,522.96c.35,0,1.02.51,1.48,1.14,1.72,2.29,2.46,4.48,1.68,4.96-.26.16-8.1-1.44-8.38-1.71-.26-.25,4.65-4.39,5.21-4.39h0ZM865.65,523.03c.28,0,.55.12.78.35.58.58.5,4.02-.14,5.71-.29.77-.69,1.91-.88,2.53-.44,1.44-7.58,6.05-9.37,6.05-1.22,0-1.4-2.68-.44-6.41,1.18-4.58,1.1-4.51,3.01-2.74,2.32,2.14,3.39,1.91,3.88-.82.48-2.67,1.95-4.68,3.16-4.66h0ZM676.39,524.42c.42-.03.83.26,1.38.84,1.47,1.56.89,5.4-.81,5.4-2.43,0-3.77-3.38-2.05-5.22.62-.66,1.06-1,1.48-1.03ZM689.18,524.51c.32,0,.6.1.85.3,1.74,1.33,1.87,4.21.28,6.02-1.14,1.3-3.12,1.77-3.12.75,0-.27-.56-1.31-1.25-2.31-.69-1-1.2-1.87-1.14-1.93,2.06-1.94,3.4-2.83,4.37-2.83h0ZM735.64,526.82c2.33,0,5.35.12,8.11.35,4.69.39,8.73,1.36,10.88,2.62,1.41.82,4.7,4.33,4.7,5.01,0,1.12-12.33.79-18.61-.49-.68-.14-1.13.03-1.66.59l-.73.78-1.41-1.53c-1.86-2.02-1.64-2.15,3.92-2.41l4.66-.21v-.87c0-1.58-1.42-1.93-7.27-1.84-5.3.09-6.57-.23-6.57-1.67,0-.23,1.64-.34,3.97-.34h0ZM646.12,527.18c.48-.07,1.67.39,3.43,1.33,3.25,1.72,3.48,2.79,1.12,5.15-1.8,1.8-4.47,2.17-6.87.94-2.07-1.06-2.06-1.41.11-4.3,1.08-1.44,1.96-2.73,1.96-2.88s.08-.22.24-.24h0ZM631.76,528.21c.37,0,.86.19,1.09.42.61.61.52,1.4-.15,1.27-.95-.19-1.79-1.69-.94-1.69h0ZM654.91,528.91c.49-.12,1.23.88,2.5,3.07,2.45,4.22,2.15,4.99-1.92,4.99-2.7,0-3.08-.5-2.12-2.85.27-.65.59-1.97.73-2.93.2-1.42.43-2.19.81-2.28h0ZM682.23,529.09c.59-.01,1.14.4,1.68,1.21,1.67,2.52,1.42,8.06-.35,8.06-.26,0-1.56-1.01-2.88-2.24l-2.4-2.24.65-1.22c1.26-2.37,2.33-3.55,3.31-3.57h0ZM816.25,530.44l2.1.05-.04,1.34c-.03,1.04-.33,1.63-1.35,2.68l-1.31,1.34-9.85.14c-9.23.13-9.95.19-11.43.9-.87.42-1.83.76-2.14.77-1.02.01-7.4-3.2-7.05-3.55.55-.55,7.22-1.61,15-2.39,11.1-1.12,13.78-1.33,16.08-1.28h0ZM707.81,530.69c-.46,0-.75.17-.88.5-.76,1.98,5.87,4.38,12.09,4.37.89,0,3.41.33,5.59.74,3.73.7,4.01.71,4.55.16,1.55-1.58-1.61-2.54-13.95-4.23-2.41-.33-4.91-.82-5.56-1.08-.77-.31-1.38-.46-1.84-.46ZM695.41,530.71c.66,0,1.24.26,1.77.79,1.61,1.61,1.47,3.49-.43,6.07-1.17,1.58-1.72,1.45-4.49-1.08l-2.42-2.22,1.34-1.2c1.77-1.58,3.12-2.36,4.22-2.37ZM835.3,530.88c2.42-.05,5.19.12,7.03.52,11.42,2.5,17.3,15.44,10.18,22.42-2.45,2.4-3.24,2.61-10.88,2.92-10.24.42-13.44.99-16.59,2.99-3.01,1.91-4.3,1.56-5.8-1.53-1.33-2.74,0-3.53,6.9-4.09,2.45-.2,6.14-.5,8.2-.67,7.24-.59,11.34-3.93,11.77-9.57.23-3.12-.98-5.19-2.72-4.64-.96.3-1.14,1.13-.51,2.36,2.69,5.2-1.89,8.15-14.32,9.19-4.73.4-6.84.73-8.78,1.41-3.58,1.24-4.09,1.13-6.97-1.52-1.65-1.51-1.33-1.68,3.5-1.91,13.47-.64,19.25-6.23,14.96-14.46-.69-1.33-1.1-2.5-.93-2.67.45-.45,2.52-.71,4.93-.75h0ZM823.05,531.31c.44-.03.99.16,1.72.54,4.47,2.31,6.27,8.9,3.04,11.11-2.01,1.37-6.12,2.38-11.19,2.74-2.85.2-5.21.58-6.7,1.08l-2.29.76-2.94-.74c-1.62-.41-3.33-.74-3.81-.74-1.27,0-1.46-.64-.32-1.08.54-.21,4.65-.59,9.12-.86,10.45-.62,13.75-2.06,13.75-6.05,0-2.59-1.41-2.61-2.85-.05-1.25,2.22-2.46,2.77-7.02,3.15-13.56,1.15-17.91,1-18.41-.61-.29-.95,1.51-1.19,10.16-1.38,13.01-.28,14.13-.67,16-5.69.55-1.48,1-2.15,1.74-2.2h0ZM635.95,531.42c.41.06.97.38,1.82,1,1.65,1.2,1.73,1.58.75,3.51-.91,1.79-1.13,1.75-2.61-.45-1.33-1.97-1.43-2.39-.87-3.44.25-.46.51-.68.92-.62ZM702.05,534.57c.28.01.58.12.92.31,1.69.9,2.22,3.92,1.03,5.87-.93,1.53-1.5,1.69-2.9.82-2.49-1.54-2.61-1.88-1.46-4.28.95-1.98,1.57-2.76,2.41-2.72ZM688.51,536.36c.51.05,1.14.57,2.16,1.59,3.68,3.68,2.39,6.59-1.79,4.05-2.69-1.63-3.08-2.56-1.87-4.39.58-.87.98-1.3,1.49-1.25ZM642.23,536.51c.36-.02.69.03.96.18.42.23,1.63.6,2.69.82l1.93.4-.02,1.63c-.03,2.51-2.35,5.13-4.05,4.59-.8-.25-5.21-4.24-5.21-4.71,0-1.31,2.14-2.82,3.71-2.91h0ZM740.84,537.38c.16,0,.34.02.55.05.72.11,4.54.38,8.49.58,8.52.45,10.63.74,12.66,1.77,2.51,1.27,5.32,3.38,6.7,5.03,2.31,2.77,2.57,2.69-8.06,2.47-12.66-.27-11.78-.1-14.41-2.75-2.67-2.69-2.74-2.65,4.34-2.66,5.25-.01,6.48-.18,6.48-.87,0-1.47-4.3-2.11-10.94-1.61-4.34.32-4.64.31-5.58-.36-1.3-.92-1.34-1.65-.22-1.64h0ZM661.25,537.67c.48.02,1.26.65,2.43,1.9,2.07,2.19,2.16,2.53.84,3.03-2.47.94-3.94-.24-3.94-3.16,0-1.2.19-1.79.67-1.77ZM651.06,538.45c.3.04.75.28,1.48.67,1.2.63,1.8.71,3.69.54l2.25-.21v1.93c0,3.82-1.01,4.57-5.69,4.25-3.55-.24-4.1-.67-3.34-2.59.29-.74.64-1.97.78-2.74.25-1.4.33-1.91.82-1.85h0ZM884.57,541.59c.11.01.14.1.14.25,0,.77-4.85,6.18-6.48,7.23-.61.39-7.15,1.35-7.41,1.08-.05-.05,1.04-.75,2.43-1.54,1.39-.79,4.42-2.71,6.73-4.25,3.19-2.13,4.25-2.81,4.59-2.77h0ZM696.25,541.81c.51-.01,1.08.11,1.71.39,2.22,1.01,4.35,6.32,2.53,6.32-.53,0-3.08-1.34-4.84-2.54-2.44-1.67-1.6-4.12.6-4.17h0ZM712.56,542.26c-.69,0-.95.16-1.08.49-.95,2.49,3.77,3.63,16.19,3.93,8.86.21,9.57.07,7.7-1.54-.83-.71-1.32-.82-3.82-.82-3.33,0-11-.78-15.3-1.55-1.88-.34-3.01-.5-3.7-.51h0ZM667.04,544.15c.28.05.52.34.81.89,1.26,2.46.27,5.65-1.93,6.26-3.37.94-6.07.36-6.69-1.43-1.17-3.35-.02-4.82,3.58-4.59,2.29.15,2.68.08,3.26-.55.4-.44.71-.64.98-.59h0ZM704.42,545.39c.4,0,1.01.24,1.92.65,2.48,1.13,3.37,4.92,1.15,4.92-2.43,0-3.84-1.2-3.84-3.27,0-1.63.09-2.3.76-2.31h0ZM645.92,546.23c.46-.09,1.33.58,1.55,1.27.31.99-.01,1.22-1.06.74-.81-.37-1.17-1.41-.66-1.92.05-.05.1-.07.17-.09ZM671.09,546.49c.2.04.5.22.98.52,3.22,2,3.4,3.61.39,3.61-1.17,0-1.71-.95-1.71-3,0-.87.02-1.2.35-1.13ZM652.35,548.17c1.04-.08,2.25.09,3.47.56,1.12.43,1.19,4.92.08,6.03-1.24,1.23-6.52-2.24-6.52-4.29,0-1.33,1.25-2.16,2.97-2.3h0ZM779.5,548.36c6.09.03,18.5.3,20.37.51,5.81.65,13.77,5.24,15.85,9.12.41.77.4.78-1.81.56-1.22-.12-7.35-.31-13.61-.43l-11.38-.22-1.82-1.77c-2.46-2.39-2.58-2.35,6.88-2.35s10.53-.12,10.53-1.11c0-1.68-12.87-2.66-20.5-1.56-1.85.27-7.87-1.78-7.87-2.67,0-.06,1.33-.08,3.36-.07ZM758.8,550.15c3.65,0,7.98.16,10.98.49,5.38.58,10.41,2.9,14.59,6.73,2.28,2.09,1.96,2.5-1.6,2.04-1.43-.18-5.05-.43-8.03-.55-11.66-.46-21.38-2.23-20.46-3.72.3-.49,6.07-.35,8.38.21,2.88.7,4.69.68,4.97-.04.63-1.65-2.15-2.61-9.54-3.28-5.07-.46-6.81-.85-6.25-1.4.32-.32,3.31-.48,6.96-.48h0ZM677.53,551.01c.28.02.57.12.9.31,1.82.97,1.82,6.39,0,7.37-2.62,1.4-5.79-.03-6.11-2.76-.29-2.51-.21-2.68,1.49-3.23.72-.23,1.7-.71,2.18-1.06.63-.46,1.07-.66,1.53-.63ZM864.04,552.3c.44,0,.7.1.7.35,0,.15-.67.62-1.49,1.04-.82.41-2.28,1.19-3.24,1.71-15.24,8.32-15.44,8.4-22.87,9.37-4.33.57-6.22.32-9.19-1.19-3.84-1.96-1.15-2.62,15.62-3.84,6.26-.46,7.96-.96,10.73-3.21,2.47-2,7.81-4.19,9.73-4.22h0ZM876.81,553.19c2.48-.05,5.05.27,8.1.9,7.32,1.51,13.38,5.42,16.58,10.69.71,1.17.36,1.43-2.34,1.74-3.75.44-10.53,3.25-19.73,8.18-4.17,2.23-7.93,3.93-12.33,5.55-4.63,1.71-14.69,1.21-17.68-.89-2.93-2.06-2.8-2.45,1.16-3.45,7.25-1.85,9.57-2.63,11.9-3.98,6.94-4.05,11.25-6.35,12.72-6.77,2.12-.61,6.25-1.23,8.22-1.23,2.62,0,3.08-1.69.67-2.48-3.98-1.31-11.8.78-18.11,4.85-3.02,1.95-6.69,3.79-11.04,5.55l-3.33,1.34-6.12.13c-7.59.16-8.06.04-10.3-2.75-2.05-2.54-1.99-2.64,1.96-3.13,7.04-.87,12.49-2.84,20.96-7.55,8.3-4.63,13.25-6.58,18.69-6.7h0ZM668.33,553.45c.6-.01,1,.24,1.14.76,1.01,3.78-.23,6.2-3.46,6.7-2,.31-2.3-.04-2.83-3.31q-.56-3.47,1.53-3.51c.9-.01,1.96-.16,2.34-.32.49-.21.91-.32,1.27-.33ZM683.09,554.49c.35.03.86.27,1.65.68,2.33,1.19,1.48,2.81-1.47,2.81h-1.39l.25-1.49c.24-1.47.37-2.04.95-2h0ZM659.37,554.55c.34.02.56.43.79,1.24,1.22,4.17,1.08,4.42-1.57,2.81-2.17-1.32-2.21-1.45-.74-2.97.72-.74,1.18-1.1,1.51-1.08ZM688.76,558.03c.44.06.78.44,1.08,1.16,1.36,3.25-.07,5.78-3.42,6.06l-1.95.16-.25-1.18c-.14-.65-.49-1.59-.79-2.1-.75-1.29-.37-1.94,1.31-2.23.79-.13,1.87-.62,2.39-1.07.67-.59,1.2-.86,1.63-.8ZM693.59,559.82c.47,0,1.1.28,1.72.84.8.72.45,1.42-.84,1.71-1.23.27-1.66-.18-1.67-1.72,0-.56.31-.83.79-.83h0ZM796.34,560.76c2.49,0,5.95.11,10.27.38,8.72.53,12.39,1.43,18.57,4.54,3.37,1.7,7.54,5.23,6.75,5.72-.43.26-26.17.71-27.13.47-1.01-.25-2.91-3.45-2.58-4.33.27-.7,11.27-.43,15.6.38,2.85.53,3.85.31,3.85-.84,0-2.19-11.07-3.8-19.26-2.8l-3.56.44-2.69-1.22c-1.48-.67-3.12-1.39-3.65-1.61-1.78-.73-.33-1.11,3.82-1.13h0ZM672.03,560.86c.33.04.56.33.9.91,1.2,2.03,1.22,5.66.04,5.66-.61,0-6.64-3.34-6.95-3.86-.25-.4.71-.89,2.28-1.18.67-.12,1.7-.53,2.28-.9.71-.46,1.13-.68,1.46-.64ZM678.9,561.18c.16-.03.59.11.96.31,3.41,1.82,2.17,7.69-1.63,7.69h-1.84l-.29-3.24c-.16-1.78-.29-3.47-.29-3.76,0-.34.48-.6,1.4-.74.77-.12,1.53-.24,1.69-.26h0ZM762.35,561.2c.3-.01.72.02,1.28.09,1.01.14,3.33.39,5.16.56s4.83.31,6.65.32c9.45.04,17.75,2.45,21.93,6.38,3.3,3.1,5.19,6.68,3.1,5.89-.48-.18-2.81-.66-5.17-1.06-2.36-.4-6.65-1.18-9.54-1.74-10.35-2-15.5-2.48-17.39-1.62-.45.21-.67-.02-1-1.03-.6-1.81-.18-1.99,4.03-1.73,3.13.19,4.82.39,9.37,1.11,2.57.4,3.21-1.3.87-2.34-1.89-.84-4.82-1.3-11.83-1.89-5.14-.43-5.65-.53-6.8-1.41-1.33-1.01-1.57-1.49-.68-1.54h0ZM699.3,562.33c.68.03,1.46.32,2.43.87,2.65,1.51.27,4.59-3.56,4.59-1.37,0-1.57-.13-2.57-1.58l-1.09-1.58.94-.36c.52-.2,1.41-.76,1.99-1.24.58-.49,1.17-.72,1.85-.7ZM707.97,565.81c.24-.06.72.06,1.44.36,1.36.57,1.69.98,1.4,1.75-.31.82-.94.69-2-.42-.97-1.01-1.24-1.59-.84-1.69ZM691.84,566.07c.31.01.62.13,1.01.34,2.47,1.32,2,7.68-.56,7.68-1.31,0-3.64-1.04-3.82-1.7-.51-1.87-.6-4.61-.14-4.61.27,0,1.02-.39,1.67-.88.82-.61,1.32-.87,1.84-.84h0ZM705.55,567.18c.21.07.58.51.82.98,1.47,2.87-.35,5.8-3.17,5.1-.64-.16-2-2.09-2-2.84,0-.37,3.99-3.35,4.34-3.23ZM684.45,568.3c.37.02.72.42,1.26,1.22,1.4,2.06.79,2.73-1.87,2.07-2.04-.51-2.12-.73-.8-2.22.64-.73,1.04-1.09,1.41-1.06ZM719.94,569.49l1.93.22c1.06.12,2.6.52,3.41.88,1.89.84,1.99,1.57.17,1.27-2.33-.39-3.86-.93-4.7-1.66l-.82-.71ZM711.5,570.2c.71-.02,1.46.34,2.12,1.13,1.75,2.08.8,4.76-1.91,5.37-1.16.26-3.33-2.21-3.02-3.42.51-1.95,1.62-3.04,2.81-3.08h0ZM697.93,570.66c.41.04.85.51,1.29,1.43,1.12,2.29,0,4.02-2.21,3.41-1.05-.29-1.13-1.49-.23-3.62.35-.84.74-1.25,1.15-1.21h0ZM768.67,571.44c.57-.04,1.63.25,2.58.75l.88.46h-.91c-1.25.04-3.16-.67-2.92-1.06.06-.09.19-.14.38-.16h0ZM730.45,572.7c.64-.06,1.66.18,3.24.71,3.87,1.31,3.68,2.78-.34,2.78-2.22,0-3.77-.98-3.77-2.38,0-.68.24-1.05.88-1.11h0ZM717.74,573.39c.45.04,1.24.54,2.21,1.44,2.5,2.31,1.98,3.33-.66,1.28-1.63-1.27-1.96-1.66-1.97-2.29,0-.32.15-.45.42-.43h0ZM724.19,574.08h.86c.47,0,1.21.25,1.64.55.43.3.78.77.78,1.05,0,.85-1.21.56-2.28-.55l-1.01-1.05ZM823.66,574.55c4.83.04,10.1.39,12.11.93,3.46.92,6.01,2.06,7.79,3.48.77.61,2.5,1.9,3.85,2.85,4.09,2.9,9.23,8.55,8.47,9.32-.05.05-1.35-.3-2.88-.79-4.07-1.29-8.17-2.07-16.44-3.1-4.04-.5-8.66-1.16-10.25-1.47-3.09-.59-3.93-.39-3.93.93,0,1.44,2.96,2.18,14.53,3.65,19.64,2.49,33.26,9.84,38.17,20.6,1.99,4.35,1.52,5.8-1.29,4-2.24-1.43-8.37-4.53-10.89-5.51-1-.39-3.71-1.55-6.02-2.58-4.6-2.05-14.83-5.71-19.26-6.88-1.54-.41-3.27-.98-3.84-1.27-.85-.43-1.24-.45-2.19-.11-1.27.46-4.23-1.56-5.35-3.64-.73-1.37-.57-1.37,7.61-.22,9.51,1.34,11.84,1.94,18.58,4.79,2.95,1.25,5.83,2.36,6.39,2.47,2.54.51.01-3.21-2.8-4.12-.69-.22-2-.78-2.92-1.24-4.3-2.16-9.58-3.47-20.22-5.02-3.95-.58-7.69-1.13-8.31-1.24-.94-.16-1.41-.62-2.74-2.69-.89-1.37-2.48-3.4-3.54-4.52l-1.93-2.02,1.27-.24c3.26-.61,10.87.87,19.97,3.87,5.54,1.83,7.54,2.03,7.54.74s-4.11-3.03-11.21-4.76c-.67-.16-2.8-.73-4.73-1.26-3.24-.89-4.02-.97-10.51-1.01l-7-.04-2.45-1.18c-4.01-1.93-3.71-2.47,1.23-2.23,1.64.08,4.24-.01,5.78-.21,1.78-.22,4.52-.3,7.42-.28h0ZM789.59,575.47c.53-.07,2.66.22,6.17.91,9.85,1.92,16.64,5.12,21.11,9.95,3.73,4.03,3.25,4.02-6.94-.22-1.84-.77-10.55-3.13-26.81-7.27-5.99-1.52-8.2-1.84-8.9-1.25-1.44,1.2-.21,2.36,3.33,3.14,4.06.9,5.37,1.46,2.79,1.2-4.53-.46-7.28-2.05-9.21-5.36-.81-1.38-.73-1.38,5.89-.22,2.69.47,6.55,1.25,8.57,1.73,10.2,2.41,11.43,2.57,11.74,1.57.38-1.19-.76-1.95-4.35-2.91-2.88-.77-3.94-1.2-3.41-1.27h0ZM739.16,575.53c.32.03.81.25,1.64.67,1.83.93,1.81,1.54-.03,1.3-1.64-.22-2.48-.79-2.2-1.5.13-.33.27-.49.6-.46h0ZM703.81,575.84c1.4-.04,3.08.16,3.62.54,1.99,1.39.9,1.81-2.61,1.02-3.39-.76-3.54-.83-2.9-1.23.32-.2,1.06-.31,1.89-.33h0ZM716.45,577.12c.77-.02,1.5.19,1.89.69.66.84,1,2.23.53,2.23-.56,0-5.06-1.13-5.06-1.27,0-.97,1.36-1.62,2.63-1.65ZM729.21,578.05l1.9.26c1.04.14,2.23.36,2.63.49,1.39.44,1.62,2.99.28,2.99-.58,0-2.9-1.66-4.01-2.87l-.8-.87ZM746.85,578.67c.51-.06,1.17.19,2.02.76,1.44.97,1.42,1.4-.08,1.71-2,.41-3.69-.86-2.72-2.03.22-.26.47-.41.78-.44h0ZM738.09,579.22c.25,0,.58.06,1.02.15.82.16,2.08.3,2.79.3,3.79.04,1.11,2.99-3.12,3.42l-1.96.2.21-1.81c.21-1.8.3-2.28,1.06-2.27h0ZM722.65,579.36c.27-.03.58.07.92.29.66.42.17,1.08-.8,1.08-1.03,0-1.35-.34-.87-.93.22-.27.47-.42.74-.44ZM704.38,581.51c.38-.02.82.18.94.55.19.58-.91.99-1.38.51-.2-.2-.25-.55-.12-.77.12-.19.33-.28.56-.29h0ZM715.64,582.5c.43,0,.98.11,1.33.34.4.26.26.34-.59.35-.61,0-1.21-.15-1.33-.35-.14-.22.17-.34.6-.34ZM752.1,582.54c.41.03.64.25.77.67.7,2.21-1.42,4.36-5.13,5.2l-1.36.3v-4.8l1.31-.22c.72-.12,1.87-.43,2.54-.7.86-.34,1.46-.49,1.87-.46h0ZM755.6,582.55c.38-.03,1.07.25,2.28.81,3,1.4,4.07,2.27,3.48,2.85-2.11,2.11-6.23.35-6.23-2.65,0-.65.08-.98.46-1.01h0ZM785.46,582.87c.43-.07,1.52.09,3.47.5,1.35.28,3.24.75,4.2,1.03.96.28,3.83,1.07,6.36,1.76,19.12,5.17,28.01,11.18,32.15,21.73,1.49,3.8,1.46,3.81-3.7.44-11.22-7.33-25.6-14.01-40.25-18.68-9.43-3.01-11.9-4.15-10.99-5.06.21-.21,2.54.24,6.27,1.21,9.33,2.43,11.68,3.14,14.99,4.54,3.7,1.56,4.96,1.57,4.96.06,0-1.23-3.4-2.78-11.21-5.09-4.99-1.48-6.48-2-6.48-2.28,0-.08.07-.13.21-.15h0ZM723.27,583.81l1.66.25c.91.14,2.2.47,2.86.75l1.2.5-.98,1.02c-2.41,2.52-4.75,2.07-4.75-.9v-1.61ZM709.78,583.84c1.35,0,2.71.19,2.85.57.72,1.89-1.39,3.84-2.89,2.66-.51-.4-1.12-.73-1.36-.73-.68,0-1.69-1.32-1.46-1.91.15-.39,1.5-.58,2.85-.58h0ZM720.22,583.91c.19.03.35.2.47.51.62,1.61-1.93,4.37-4.04,4.37-3.41,0-2.96-2.41.67-3.59,1.03-.34,2.03-.77,2.23-.96.25-.25.48-.36.67-.33h0ZM743.37,583.98c.3-.02.57.58.57,1.47,0,1.44-.44,1.62-2.36.97-1.85-.63-1.88-1.01-.1-1.48.76-.21,1.48-.53,1.6-.72.1-.16.2-.23.3-.24h0ZM734.55,586.49c.57.01,1.36.53,3.1,1.58l2.87,1.73-1.36.23c-2.51.42-3.68.93-4.06,1.76-.63,1.39-.18,1.9,1.36,1.54,3.87-.9,5.01-.25,3.78,2.14-.62,1.21-1.65,1.54-4.07,1.3-4.55-.44-6.47-5.35-3.43-8.8.87-.99,1.23-1.49,1.8-1.48h0ZM764.82,587.15c.6-.06,1.59.34,3.2,1.11,3.66,1.75,3.2,3.56-1,3.97-2.19.21-3.12-.49-3.12-2.34,0-1.81.15-2.65.92-2.73h0ZM753.49,588.25c.49-.05.8.31,1,1.05.69,2.57-.14,3.37-2.49,2.43-1.6-.64-1.74-1.11-.62-2.13.95-.86,1.62-1.3,2.12-1.35ZM728.08,589.49l.22,1.31c.63,3.8.39,4.25-2.34,4.53-2.62.27-3.09-.27-2.8-3.15.26-2.56.39-2.68,2.96-2.69h1.97ZM759.45,589.55c.95-.01,1.83.23,1.93.74.2,1.04-1.8,2.71-3.24,2.71-1.27,0-1.8-1.43-.98-2.66.34-.51,1.35-.78,2.29-.79ZM778.64,590.22c.2.02.31.17.31.46,0,.65-3.66,2.37-5.52,2.58-1.71.2-1.81-.04-.64-1.49l.85-1.05,1.27.68,1.27.68.94-.94c.64-.64,1.19-.96,1.52-.92h0ZM720.42,590.24c.28-.04.41.15.56.61.42,1.32-1.13,3.49-3.29,4.6-.96.49-1.84-.29-3.17-2.84l-.66-1.26,2.63-.22c1.45-.12,2.9-.38,3.22-.56.31-.18.54-.29.71-.32h0ZM744.76,591.9c.23-.04.87.33,1.93,1.1,4.55,3.29,4.17,12.95-.7,17.87l-1.54,1.56-.11-1.86c-.06-1.08.2-3.01.61-4.63.4-1.53.72-3.17.72-3.66,0-1,.4-1.14,1.05-.36.67.81,1.4-.01,1.4-1.57,0-2-.85-4.37-2.24-6.27-1.04-1.42-1.43-2.14-1.13-2.19h0ZM784.33,593.13c1.29,0,2.72.17,4.26.57,8.56,2.19,14.66,11.79,12.46,19.61-.36,1.29-2.3-1.43-2.6-3.66-.25-1.82-1.26-3.98-2.75-5.87-.84-1.07-.98-1.51-.8-2.48.75-4.02-9.93-7.03-13.31-3.75-1.5,1.46-2.2,3.4-1.61,4.51.64,1.19,1.93.97,2.79-.49,1.22-2.08,4.25-2.85,6.88-1.75,1.53.64,1.52,1.09-.03,3.08-4.1,5.27-10.59,4.98-12.23-.53-1.66-5.58,1.36-9.19,6.95-9.23ZM768.34,594.8c.85.03,1.59.16,1.79.37,1.45,1.45-.41,4.13-2.85,4.13-1.63,0-2.92-3.92-1.42-4.3.66-.17,1.62-.23,2.47-.19h0ZM761.2,595.1c.72-.04,1.3.26,1.59.88,1.06,2.33.59,2.62-1.9,1.13-1.83-1.09-1.86-1.14-1.1-1.56.5-.28.98-.43,1.42-.45h0ZM753.1,595.67c.5.05,1.15.41,1.47.93.45.72-.41,2.42-1.15,2.28-.58-.11-1.25-2.18-.95-2.94.08-.22.33-.3.63-.26h0ZM774.01,595.96c.28-.02.24,1.25.12,4.12-.19,4.74-.3,4.85-2.75,2.83l-1.56-1.28,1.03-.95c.57-.52,1.38-1.64,1.81-2.48.72-1.43,1.13-2.23,1.35-2.25h0ZM721.88,597.13c.73.03,1.56.17,2.44.42,2.15.61,2.37.89,1.47,1.85-1.94,2.07-5.12,1.94-6.57-.27-.85-1.3.47-2.11,2.66-2h0ZM729.58,597.21c.19,0,.39.12.54.36.32.52-.05.8-.72.55-.31-.12-.46-.37-.34-.57.14-.23.34-.34.53-.34h0ZM800.21,597.59c.05,0,.12.03.19.05.24.1,1.54.62,2.89,1.16,1.35.54,2.52,1.04,2.61,1.1s-.09.54-.4,1.07c-.31.52-.67,1.78-.8,2.79-.21,1.54-.88,2.66-.88,1.47,0-.52-2.76-6-3.35-6.66-.54-.6-.63-1.04-.25-.98h0ZM757.21,598.25c.12,0,1.04.72,2.05,1.6l1.83,1.6-2.43,2.81c-1.71,1.97-2.46,3.13-2.54,3.92-.1,1.01-.37,1.24-3.08,2.59-3.67,1.83-3.69,1.83-2.75,0,.42-.82,1.25-2.59,1.85-3.94,1.12-2.54,4.7-8.58,5.08-8.58h0ZM742.43,598.65c.3.03.46.27.58.73.73,2.74-.05,3.38-1.85,1.52l-1.16-1.2,1-.54c.69-.37,1.13-.55,1.43-.52h0ZM716.93,600.66l.81.43c.44.23,1.32.81,1.94,1.29,1.38,1.05,1.42,1.55.19,2.52-1.86,1.46-2.72.9-2.84-1.85l-.1-2.39ZM733.35,600.75c1.03-.06,2.26.33,3.95,1.21,2.51,1.32,4.18,3.57,4.18,5.64,0,1.3-.62.94-1.55-.9-2-3.95-6.35-5.1-8.92-2.36l-.8.85.73.73c.57.57,1.17.73,2.76.73,2.55,0,3.36.55,4.11,2.82.32.97.89,1.96,1.25,2.19.88.55.85.75-.3,1.83-3.86,3.66-8.39,3.71-17.25.18-3.33-1.32-2.06-1.42,2.51-.19,5.93,1.59,9.31,1.09,11.81-1.76,1.77-2.01,1.44-2.69-1.54-3.14-5.45-.84-6.72-5.82-1.93-7.62.31-.12.63-.19.98-.21h0ZM808.16,601.05c.39-.05.96.16,1.84.53q1.26.53,1,2.19c-.14.91-.28,2.37-.31,3.24l-.05,1.58,1.23-.03c.67-.02,2.13-.16,3.24-.31,1.84-.25,2.13-.2,3.43.66l1.42.94-1.44,1.63c-.79.9-2.24,2.98-3.22,4.63-2.86,4.8-4.13,5.84-8.34,6.82-4.61,1.08-4.3,3.16.46,3.04,5.06-.13,7.43,2.1,3.68,3.45-3.79,1.37-6.33,2.65-8.51,4.29-1.95,1.47-3.82,2.61-6.82,4.19-2.07,1.09-5.74.88-8.37-.47-3.02-1.56-2.53-2.04,2.04-2.04,2.72,0,4.8-.69,7.85-2.59,1.41-.88,3.72-2.07,5.12-2.64,3.12-1.27,3.48-1.58,2.72-2.34-.71-.7-2.31-.46-4.61.71-.89.45-1.62.76-1.62.7,0-.62,3.86-5.86,6.67-9.04,4.05-4.6,5.15-5.51,7.85-6.52,3.24-1.21,3.59-3.3.54-3.19-2.39.09-8.09,3.56-9.34,5.67-.93,1.57-1.16,1.26-.61-.79.27-1.01.49-2.41.49-3.1,0-.73.46-2.11,1.08-3.28.75-1.41,1.2-2.92,1.48-4.95.28-2.04.44-2.85,1.09-2.93h0ZM765.97,601.34c.25-.04.68.12,1.24.53.43.31.57.69.41,1.1-.22.58-.31.57-1.11-.19-.85-.8-.95-1.39-.54-1.45h0ZM726.19,601.81c.45-.02.74.44.7,1.29-.07,1.48-.27,1.65-1.34,1.17-1.03-.47-1.11-.99-.29-1.89.34-.37.66-.56.93-.57h0ZM832.72,602.2c.58-.08,2.2.31,5.37,1.11,11.83,2.98,24.64,8.23,34.94,14.31,7.93,4.69,15.16,12.57,18.32,19.98,1.15,2.7,1.07,2.67-5.61-1.74-2.42-1.6-5.65-3.57-7.18-4.39-1.53-.82-3.96-2.19-5.39-3.05-2.27-1.36-24.09-12.13-33.14-16.35-2.81-1.31-4.7-2.85-4.7-3.82,0-1.9,13.39,2.8,25.52,8.96,6.42,3.26,9.44,3.77,6.11,1.02-3.52-2.9-24.07-11.6-29.99-12.69-1.98-.37-2.55-.63-3.41-1.61-.97-1.11-1.42-1.66-.84-1.75h0ZM814.42,603.87c.32-.04.81.09,1.46.38,1.3.59,1.09,1.05-.42.93-.92-.08-1.34-.29-1.43-.72-.07-.36.07-.56.39-.59h0ZM763.23,603.9c.43-.03.88.41,1.61,1.43.58.82,1.41,2.17,1.83,3l.77,1.52-1.86-1.39c-1.02-.76-2.38-1.65-3.01-1.97-1.17-.59-1.18-.83-.14-2.04.3-.35.55-.54.8-.56ZM769.7,604.62c.29-.01.79.34,2.28,1.36,2.35,1.6,2.56,2.38.96,3.56-1.88,1.39-5.4-2.91-3.74-4.57.21-.21.31-.35.49-.35ZM792.59,604.93c.27-.02.47.16.61.54.25.66-.72,1.53-1.71,1.53-.83,0-.8-.53.07-1.4.43-.43.76-.65,1.03-.67h0ZM722.69,606.02c.42-.03.78.19,1.45.63.58.38,1.41.7,1.84.7,1.26,0,.92.97-.6,1.75-1.72.88-2.58.88-4.48.02-1.84-.84-1.85-1,0-2.19.89-.57,1.36-.86,1.78-.9h0ZM677.33,606.5c.69-.04,1.51.51,1.68,1.55.27,1.69,1.06,1.86,1.59.35.43-1.24,1-1.06,1,.31,0,1.88,1.25,1.73,1.61-.2.49-2.63,5.05-.67,5.45,2.34l.12.88-5.25.22c-2.89.12-6.24.34-7.44.48-2.59.32-2.63.21-.96-2.28.67-1,1.23-2.09,1.23-2.43,0-.8.45-1.19.99-1.22h0ZM672.18,608.05c.95,0,1.03.07.64.55-.74.89-2.47,1.66-2.86,1.27-.56-.56.97-1.81,2.22-1.81ZM794.77,608.4c.35,0,.64.24.64.53,0,.56-1.23.73-1.55.22-.26-.42.14-.75.9-.75h0ZM787.68,608.41c.24-.01.37.1.37.33,0,.34-3.41,2.45-3.96,2.46-.51,0,.15-.72,1.6-1.77.9-.65,1.6-1,1.99-1.02ZM760.07,609.03c.83-.05,1.84.26,2.91.96,1.23.81,1.27.75-1.62,2.1-1.4.65-3.55,1.81-4.78,2.58-1.8,1.12-2.9,1.51-5.6,1.99-4.87.86-5.96,1.86-3.54,3.23,1.47.84,1.44.86-2.36,2.01-6.12,1.85-11.85,1.26-15.15-1.58l-1.22-1.04,1.75.21c.96.11,2.93.62,4.38,1.12,3.31,1.15,8,1.31,8.99.32,1.08-1.07,0-1.66-3.55-1.91l-3.09-.22,1.55-.79c2.29-1.16,4.94-1.83,9.04-2.26,2.01-.21,4.14-.63,4.73-.93,2.16-1.1,5.5-3.7,5.82-4.53.3-.78.93-1.21,1.76-1.26h0ZM728.44,609.84c.17,0,.38.1.8.33,1.05.56.8,1.04-.55,1.04s-1.51-.28-.81-.98c.25-.25.38-.38.55-.39h0ZM775.89,609.87l1.79.52c.99.29,2.15.75,2.58,1.02,1.07.68.99,1.31-.29,2.38-1.46,1.23-3.53,1.23-5.32.01l-1.31-.89,1.28-1.53,1.28-1.53ZM691.09,610.51c.41.02,1.12.33,1.95.89,1.85,1.25,1.87,1.33.29,1.05-1.36-.24-2.63-1.04-2.63-1.65,0-.21.14-.3.39-.29h0ZM790.55,612.28c1.66-.01,3.36.1,3.97.32,5.84,2.22,7,8.78,2.41,13.68-2.89,3.09-3.63,3.14-1.31.08,3.84-5.05,1.15-12.71-4.47-12.71-2.26,0-4.25,3.44-2.87,4.96.84.93,1.36.79,2.18-.59.81-1.37,1.06-1.44,2.47-.71,1.23.64,1.43,1.13,1.43,3.61v1.96l-2.89,2.88c-2.4,2.4-3.21,2.97-4.77,3.43-2.29.67-2.84,1.1-2.84,2.18,0,1.38-3.24,1.17-8.8-.58-5.66-1.78-5.67-2.09-.04-2.09,9.59-.01,13.04-.8,16.17-3.71,3.19-2.95,3.12-6.86-.07-4.34-.99.78-3.34.95-4.51.32-2.23-1.19-2.03-6.99.28-8.33.41-.24,2.02-.37,3.67-.38h0ZM771.51,614.6c.25-.1.72.23,1.61.9.71.53.49,1.34-.68,2.51-.85.85-1.2.34-1.2-1.76,0-1.03.02-1.55.27-1.65h0ZM768.51,614.71l-.25,1.83c-1.21,8.81-7.22,12.39-13.69,8.15-1.18-.77-1.86-4.35-.95-5,4.41-3.17,8.76-4.95,12.16-4.96l2.75-.02ZM679.99,614.74c.59-.05,1.5.17,2.58.66,1.21.55,1.67.6,2.36.29.7-.32.99-.28,1.5.19.85.77,1.36.73,1.81-.12.69-1.29,6.44-.25,7.02,1.28.2.52.6.83,1.09.83.42,0,1.3.19,1.94.42.89.32,1.42.33,2.24.02.87-.33,1.56-.28,3.72.28,1.46.37,3.22.7,3.92.73.69.03-.4.18-2.42.34-4.29.33-5.1.25-12.08-1.15-6.57-1.32-11.39-1.32-13.62,0-.74.44-1.41.73-1.49.65-.13-.13.41-3.04.75-4,.08-.24.32-.37.67-.4h0ZM714.66,614.81c.55.04,1.44.25,2.8.6,9.12,2.33,8.35,5.54-1.9,7.89-4.12.94-5.63,2.05-4.42,3.25.44.44.7.42,2.03-.21.84-.4,2.89-1.04,4.57-1.44,1.68-.39,3.63-.96,4.33-1.25,1.86-.78,2.15-.66,1.08.45-1.06,1.11-1.23,2.43-.36,2.76.58.22,1.15-.31,3.32-3.09,1.28-1.64,1.93-1.05,1.18,1.07-1.35,3.83-.39,4.88,1.52,1.65,1.36-2.29,1.8-2.41,4.67-1.23,2.35.96,7.44,1.05,10.66.17,2.89-.78,3.55-.73,5.25.39.8.53,1.74,1.14,2.1,1.36.53.32.57.49.22.86-.67.7-.52,1.44.45,2.28l.88.76,1.91-1.04c1.84-1,3.3-1.2,3.39-.46.06.5-3.32,2.27-5.44,2.85-3.18.87-9.28.98-16.42.31-8.34-.79-13.62-.63-15.47.46-2.03,1.2-5.33.59-11.09-2.06-4.02-1.84-5.86-2.16-10.06-1.72-3.88.41-5.04.27-9.17-1.07-1.64-.53-3.97-1.08-5.19-1.22-2.43-.28-2.75-.6-2.12-2.13.23-.56.51-1.81.63-2.77.25-2.14.69-2.16,4.15-.26l2.29,1.26.75-.94.75-.94,2.81.53c1.55.29,3.96.68,5.37.85,2.84.36,4.19,1.08,2.01,1.08-1.38,0-1.48.16-.97,1.5.43,1.14,1.37,1.46,2.17.73.55-.5.79-.52,1.72-.13,1.47.61,2.01.08,1.41-1.36-.58-1.41-.33-1.69,1.82-1.96,6.65-.84,11.9-4.39,6.48-4.39-1.59,0-1.68-.04-1.14-.58.37-.37.5-.87.37-1.42-.26-1.05-.27-1.47.65-1.41h0ZM781.58,615.8l.11,1.24c.06.68.02,1.46-.08,1.73-.27.71-1.37.6-2.44-.24-1.25-.98-1.18-1.17.74-2.01l1.66-.72ZM674.97,615.81c.26,0,.39.14.63.43.54.66-.3,1.33-1.75,1.4-1.53.07-1.68-.72-.25-1.34.73-.32,1.11-.48,1.37-.49h0ZM775.56,618.51c.49.07,1.03.6,1.94,1.63,1.4,1.6,1.38,1.74-.31,2.41-1.85.74-2.51.71-3.62-.16-1.19-.93-1.17-1.1.34-2.77.72-.8,1.17-1.18,1.66-1.11h0ZM680.85,622.09c.28-.04.37.21.2.76-.34,1.12-1.21,2.01-1.96,2.01-.93,0-.8-.6.38-1.78.62-.62,1.1-.95,1.39-1h0ZM783.66,622.47s.07,0,.1.03c.14.08.94.43,1.76.79,1.46.63,1.78,1.3.71,1.51-.59.11-2.73-1.53-2.73-2.09,0-.14.07-.23.16-.23h0ZM769.88,622.49c.36.03.94.38,1.98,1.07.95.63,2.03,1.32,2.4,1.55.86.54-3.18.64-4.57.12-.99-.38-1.06-.6-.56-1.91.22-.57.38-.86.74-.83ZM780.52,623.86c.54-.03.95.14,1.26.5.68.81-.13,1.19-2.56,1.19-2.37,0-2.44-.1-.7-1.02.8-.42,1.46-.65,2-.68h0ZM765.53,631.01c.83-.07,2.01.25,3.84.92,2.95,1.09,3.08,2.49.65,7.33-1.22,2.43-1.3,3.11-.37,3.11,1.09,0,3.53-4.33,4.21-7.49.16-.76.32-.91.62-.61s.3.91-.02,2.43c-.9,4.37-.06,4.92,1.82,1.19l.93-1.85,1.33,1.68c3.28,4.13,10.08,8.1,12.07,7.04.94-.51.27-1.07-2.75-2.32-3.34-1.38-6.36-3.37-7.01-4.63-.71-1.38-.4-1.32,2.1.4,4.62,3.17,10.52,4,15.22,2.13,1.93-.76,2.45-.65,2.46.54,0,.68.5.52,1.4-.43l.82-.87.39.78c.57,1.15,1.37.96,1.82-.44l.39-1.22,5.25-.1,5.24-.1.21,1.77c.36,3,1.99,3.79,1.99.96v-1.49s.7,1.14.7,1.14c1.34,2.2,2.96,1.41,1.98-.96-.12-.29-.08-.75.09-1.01.56-.88,1.39-.1,1.96,1.84.31,1.05,1.06,2.58,1.68,3.4,1.92,2.54,1.88,2.43,1.21,2.93-1.09.81-4.47,1.26-11.81,1.59-7.98.35-7.55.43-7.41-1.23.14-1.6-.57-1.59-2.36.02-4.84,4.38-17.46,4.72-26.2.71-1.07-.49-2.24-.89-2.6-.89-.83,0-.89,1.24-.08,1.55.86.33-.46,1.61-2.96,2.85-4.04,2.02-15,1.22-13.6-.98,1.65-2.61.83-3.66-1.35-1.74-.96.84-2.67,1.83-4.15,2.39-1.38.53-3.7,1.51-5.14,2.17-2.94,1.36-6.69,1.74-7.82.81-.68-.57-.81-4.29-.21-6.43.73-2.64,3.48-1.85,3.48,1.01,0,1.61.76,1.83,2.28.67,1.35-1.03,1.5-1.8.67-3.4-.3-.59-.47-1.27-.38-1.51.42-1.08,9.47-1.63,11.68-.71,1.14.48,1.33.47,1.87-.01.55-.49.65-.46,1.22.41.58.88.65.91,1.08.32.51-.7.16-2.02-.81-3.09-.33-.37-.43-.73-.24-.9.18-.15,1.21-.94,2.3-1.75,2.73-2.05,5.63-5.18,5.49-5.93-.26-1.36-1.78-.87-4.66,1.5-2.95,2.42-7.55,4.97-8.22,4.55-.57-.35.16-1.13,1.89-2.01,2.6-1.32,5.35-3.45,6.01-4.66.46-.86.95-1.31,1.79-1.37h0ZM788.97,631.17c.46,0,.84.14.84.31,0,.4-2.82,1.54-3.11,1.25-.36-.37,1.38-1.56,2.27-1.56ZM726.13,634.99c.35-.02.71.2.98.71.2.37.36.97.36,1.33,0,1.22.83,2.01,1.46,1.38.3-.3.99-.59,1.55-.65.74-.08,1.05-.33,1.13-.9.16-1.16,1.11-1.25,6.92-.63,9.16.97,9.18,1.6.04,1.58l-6.37-.02-4.61,2.38c-5.33,2.76-5.43,2.74-3.8-.39.68-1.3,1.23-2.65,1.23-3,0-1.08.53-1.76,1.11-1.79h0ZM721.44,636.46c.29.02.43.25.43.67,0,1.47-2.67,3.15-3.32,2.1-.29-.47.46-1.57,1.53-2.23.62-.38,1.06-.56,1.35-.54h0ZM752.95,639.26c.06,0,.14,0,.23.02.32.07.58.28.57.47-.03.52-.81.42-.99-.12-.07-.22,0-.35.19-.37h0ZM750.12,639.98c.35.03.45.15.38.36-.08.23-1.86.78-3.97,1.21-2.11.44-4.67,1.12-5.7,1.51-1.98.75-2.51.69-2.51-.29s.76-1.45,2.61-1.47c.97-.01,3.19-.31,4.92-.67,2.38-.49,3.68-.7,4.26-.65h0ZM827.14,640.53c.65-.04,1.94.53,3.31,1.51,2,1.42.64,1.91-1.99.71-1.61-.73-2.04-1.22-1.75-1.98.06-.15.21-.23.42-.24ZM733.2,640.95c.43.04.87.59,1.27,1.67.71,1.92.89,2.06,1.93,1.51,1.91-1.02,1.23.72-.89,2.29-3.87,2.85-5.17,2.38-4.32-1.59.56-2.62,1.29-3.95,2.01-3.88ZM728.36,643.43c.32,0,.51.15.51.48,0,.71-2.68,3.02-3.5,3.02-1.1,0-.83-.85.7-2.23.89-.8,1.76-1.25,2.29-1.26h0ZM735.95,649.76c.4-.06.62.21.62.82,0,.97-1.6,2.3-2.77,2.3-1.05,0-.91-.59.46-1.96.71-.71,1.29-1.1,1.69-1.16Z"/>
          </g>
        </g>
      </g>
    </g>
  </g>
</svg>