<?xml version="1.0" encoding="UTF-8"?>
<svg id="Style8" xmlns="http://www.w3.org/2000/svg" viewBox="0 0 2048.09 2051">
  <defs>
    <style>
      .cls-1 {
        fill: #1a1a1a;
      }

      .cls-1, .cls-2, .cls-3, .cls-4, .cls-5, .cls-6, .cls-7, .cls-8 {
        stroke-width: 0px;
      }

      .cls-2 {
        fill: #6a984c;
      }

      .cls-3 {
        fill: #e5cb91;
      }

      .cls-4 {
        fill: #113f19;
      }

      .cls-5 {
        fill: #a7c957;
      }

      .cls-6 {
        fill: #ffbc36;
      }

      .cls-7 {
        fill: #fff;
      }

      .cls-8 {
        fill: #ffeac0;
      }
    </style>
  </defs>
  <rect class="cls-4" y="1.04" width="2048" height="2048"/>
  <path class="cls-2" d="M1809,1632.77c-99.03,311.48-631.93,201.57-1043.78,100.24-288.73-94.79-315.21,9.58-324.34-20.3-58.91-192.78,290.56-456.92,290.56-456.92l811.71,169.97s98.36,236.56,265.85,207.01Z"/>
  <path class="cls-5" d="M1740.36,1335.32c-31.85,306.3-908.76,205.95-1083.01-15.25,84.98-91.52,244.06-220.09,244.06-220.09l592.71,16.34c-13.59,3.71,94.79,286.55,246.24,219Z"/>
  <path class="cls-3" d="M1629.23,1067.3c-50.67,236.03-622.13,120.94-768.13,63.19,110.04-135.1,95.94-389.73,95.94-389.73,157.46.23,314.82-21.03,443.39-18.85,0,0,11.92,388.47,228.8,345.38Z"/>
  <path class="cls-8" d="M1593.52,687.77c0,238.5-416.45,227.38-416.45,227.38v-290.41s192.62-4.7,237.52-1.98c51.9,77.85,95.88,106.78,178.93,65.01Z"/>
  <path class="cls-5" d="M149.65,800.71c-59.32-39.54,239.5,3.2,446.11-63.02,451.06-144.59,158.18,219.97,158.18,219.97,0,0-544.98-117.4-604.29-156.94Z"/>
  <path class="cls-6" d="M595.76,737.68c119.87,61.79,186.6,137.17,158.31,219.97-.13,0,54.73,35.56,260.62,35.84,313.89-33.37,537.56-367.02,427.58-781.01-164.36,231.09-830.44,195.25-846.5,525.2Z"/>
  <path class="cls-7" d="M751.86,728.49c0-50.52,68.2-87.98,134.3-80.75,59.9,0,127.6,93.11,267.48,124.96,45.4,0-327.38,25.82-401.78-44.21Z"/>
  <circle class="cls-1" cx="872.74" cy="707.02" r="58.29"/>
</svg>