<?xml version="1.0" encoding="UTF-8"?>
<svg id="Layer_2" data-name="Layer 2" xmlns="http://www.w3.org/2000/svg" viewBox="0 0 352.33 342.75">
  <defs>
    <style>
      .cls-1 {
        fill: #ff5252;
      }

      .cls-1, .cls-2, .cls-3, .cls-4 {
        stroke-width: 0px;
      }

      .cls-2 {
        fill: red;
      }

      .cls-3 {
        fill: #a70000;
      }

      .cls-4 {
        fill: #ff7b7b;
      }
    </style>
  </defs>
  <g id="Layer_1-2" data-name="Layer 1">
    <g>
      <path class="cls-2" d="M40.55,228.59c10.65-9.38,22.57-25.08,37.04-27.27,77.76-3.28,136.36,113.71,229.94,90.64,6.97,10.68,16.63,14.11,28.82,11.83-6.21,29.96-34.8,42.4-63.11,38.15-19.41-1.61-39.4-3.9-57.32-11.88-59.47-26.19-101.84-120.96-175.37-101.47Z"/>
      <path class="cls-4" d="M139.03,169.52c13.77-6.35,31.39-9.79,36.99-25.38,8.23,5.36,17.8,1.49,26.35,4.22,29.65,15.48,59.36,39.97,94.92,28.23,1.93-.54,3.07-.25,4.38,1.23,6.04,6.84,12.73,12.97,20.18,18.27,13.38,8.55,17.91,11.54,20.84-6.87,17.69,26.74,11.54,59.2-22.49,66.48-13.21.64-26.58-2.96-39.07-7.18-51.08-19.5-85.69-71.64-142.09-78.99Z"/>
      <path class="cls-2" d="M295.71,263.04c2.25,6.78,4.41,13.29,6.65,20.03-87.46,17.42-140.41-85.15-216.28-89.6,79.26-53.34,136.4,57.27,209.63,69.57Z"/>
      <path class="cls-4" d="M212.23,144.03c12.12-4.13,23.3-9.84,33.98-16.81,13.45-7.44,31.6-24.72,47.44-20.57,8.08,8.8,20.74,19.5,32.9,11.88,6.96,19.68-1.95,40.78-22.36,47.03-16.67,3.1-34.26,6.59-50.28-.94-14.38-6.16-27.31-14.25-41.69-20.59Z"/>
      <path class="cls-1" d="M206.87,30.76c0,.12,30.44-5.46,33.14-6.3,5.37-1.68,10.67-3.9,15.24-7.23,5.54-4.04,7.62-7.75,9.52-14.04.37-1.22.95-2.54,2.14-3,1.8-.71,3.61.94,4.85,2.44,7.33,8.83,12.8,19.29,11.28,31.4-1.21,9.72-8.54,18.13-15.35,24.84-22.89,20.02-55.7,11.73-81.05,1.52,10.57-6.7,20.57-15.96,20.24-29.6Z"/>
      <path class="cls-1" d="M177.47,11.04c40.91,15.88,9.21,42.68-16.9,51.66-1.3.49-2.34.46-3.57-.26-16.38-9.49-37.35,5.36-35.86,23.07-8.09-3.56-14.52-7.97-22.24-12.27.27-49.6,74.51-40.34,78.57-62.19Z"/>
      <path class="cls-1" d="M284.28,96.01c-35.95,7.64-67.67,54.5-106.64,43.57-.61-.32-1.36-.92-1.49-1.51-.95-4.3-3.19-7.78-6.37-10.46,2.65-2.95,5.18-5.77,8.02-8.94,7.83,1.1,15.6.18,22.73-3.38,3.77-1.96,13.89-8.55,6.35-11.96-4.45-1.41-.95-5.67.89-7.86,19.33-18.63,59.07-22.2,76.52.55Z"/>
      <path class="cls-1" d="M34.82,83.9c20.58.51,41.34,2.69,62.05,3.1,1.47.03,2.1.85,2.91,1.68,12.05,12.38,27.06,22.5,44.61,24.52-7.73,6.07-11.82,12.33-22.15,9.38-28.29-4.53-55.51-14.36-80.9-27.52-4.62-2.18-4.92-6.61-6.52-11.16Z"/>
      <path class="cls-3" d="M191.58,328.76C63.58,285.05,31.11,285.95,0,336.62c2.34-59.4,18.69-80.25,36.52-99.25,67.98-15.26,96.3,57.33,155.05,91.4Z"/>
      <path class="cls-1" d="M164.24,69.05c4.97-.86,12.53-6.13,16.72-4.28,10.02,6.71,20.62,11.43,32.37,14.49-8.82,5.84-23.54,18-13.16,28.79-3.31,3.57-14.4,6.27-20.47,5.01,1.43-15.77-2.48-17.52-17.38-16.54,7.5-7.83,8.05-18.71,1.93-27.47Z"/>
      <path class="cls-1" d="M129.97,94.72c9.17,3.25,18.81,5.74,28.5,7.22,2.48.38,4.97.7,7.47.95,1.66.16,3.52-.41,4.99.51,2.14,1.35,2.46,3.88,1.99,6.17-1.07,5.24-5.22,11.05-9.4,14.33-7.78,2.57-16.46.58-24.77.63,2.4-2.73,15.89-12.95,8.75-15.22-1.92-.12-3.9-.25-5.73-.8-17.76-5.13-32.15-17.29-44.87-30.23,18.39,10.11,29.81,15.28,33.07,16.44Z"/>
      <path class="cls-2" d="M159.7,85.78c-.46,2.65-1.68,5.32-3.76,7.77-.39.45-.81.9-1.35,1.15-2.29,1.06-8.27-.35-10.76-.88-4.93-1.05-9.93-2.43-13.97-5.6-2.87-2.26,1.18-10.68,2.82-12.61,2.87-3.37,7.29-5.25,11.63-5.64,10.5-.94,16.88,7.27,15.39,15.81Z"/>
    </g>
  </g>
</svg>